<?xml version="1.0" encoding="utf-8"?>
<!-- Generator: Adobe Illustrator 27.3.0, SVG Export Plug-In . SVG Version: 6.00 Build 0)  -->
<svg version="1.1" id="Layer_1" xmlns="http://www.w3.org/2000/svg" xmlns:xlink="http://www.w3.org/1999/xlink" x="0px" y="0px"
	 viewBox="0 0 258.8 270" style="enable-background:new 0 0 258.8 270;" xml:space="preserve">
<style type="text/css">
	.st0{fill:#B50D0C;stroke:#B50D0C;stroke-width:8;stroke-miterlimit:10;}
</style>
<g>
	<path class="st0" d="M171.8,199.1h-0.5V108c0-10.1-9.7-18.4-21.7-18.4H87c-12,0-21.7,8.2-21.7,18.4v22.7c0,10.1,9.7,18.4,21.7,18.4
		h0.5v50.2H87c-12,0-21.7,8.2-21.7,18.4v22.6c0,10.1,9.7,18.4,21.7,18.4h84.9c5.9,0,11.3-1.9,15.4-5.4c4.1-3.5,6.2-8.2,6.1-13.1
		v-22.6C193.5,207.3,183.7,199.1,171.8,199.1z M172.2,240.2c0,0.1-0.1,0.4-0.5,0.4H87c-0.2,0-0.5-0.1-0.5-0.4v-22.6
		c0-0.1,0.3-0.4,0.5-0.4l3.1-0.1h18.7V131H87c-0.2,0-0.5-0.1-0.5-0.4V108c0-0.1,0.1-0.4,0.5-0.4h62.6c0.2,0,0.5,0.1,0.5,0.4v109.2
		h21.7c0.2,0,0.5,0.1,0.5,0.4V240.2z"/>
	<path class="st0" d="M120.4,107.6c26.5,0,48.1-21.6,48.1-48.1S147,11.5,120.4,11.5c-26.5,0-48.1,21.6-48.1,48.1
		S93.9,107.6,120.4,107.6z M120.4,31.7c15.4,0,28,12.6,28,28c0,15.4-12.6,28-28,28s-28-12.6-28-28C92.5,44.3,105,31.7,120.4,31.7z"
		/>
</g>
</svg>
