<?xml version="1.0" encoding="utf-8"?>
<!-- Generator: Adobe Illustrator 27.3.0, SVG Export Plug-In . SVG Version: 6.00 Build 0)  -->
<svg version="1.1" id="Layer_1" xmlns="http://www.w3.org/2000/svg" xmlns:xlink="http://www.w3.org/1999/xlink" x="0px" y="0px"
	 viewBox="0 0 32 32" style="enable-background:new 0 0 32 32;" xml:space="preserve">
<style type="text/css">
	.st0{fill:url(#SVGID_1_);}
	.st1{fill:url(#SVGID_00000048479813938193688580000004753634752581834390_);}
	.st2{fill:url(#SVGID_00000058562134294591924000000009727058588243360928_);}
	.st3{fill:url(#SVGID_00000155105757697132247730000018136066640877278861_);}
	.st4{fill:url(#SVGID_00000080175139747421332320000007132468134334486944_);}
	.st5{fill:url(#SVGID_00000129889494626539587100000009309048470230777733_);}
	.st6{fill:url(#SVGID_00000140002014891030759440000010474719858629049524_);}
</style>
<g>
	
		<linearGradient id="SVGID_1_" gradientUnits="userSpaceOnUse" x1="13.927" y1="36.3812" x2="33.2628" y2="7.9307" gradientTransform="matrix(1 0 0 -1 0 33.8268)">
		<stop  offset="0" style="stop-color:#FBEE41"/>
		<stop  offset="4.000000e-02" style="stop-color:#FBE233"/>
		<stop  offset="0.12" style="stop-color:#FBD221"/>
		<stop  offset="0.2" style="stop-color:#FBC915"/>
		<stop  offset="0.28" style="stop-color:#FCC612"/>
		<stop  offset="0.67" style="stop-color:#F18F40"/>
		<stop  offset="0.89" style="stop-color:#EC683B"/>
		<stop  offset="1" style="stop-color:#E63F39"/>
	</linearGradient>
	<path class="st0" d="M31.7,14.2L31.7,14.2c-2.3-2.5-8.5-8.4-16-8.4c-0.7,0-1.3,0.6-1.3,1.3s0.6,1.3,1.3,1.3c1.7,0,7.7,0.5,14.1,7.5
		c0.5,0.5,1.3,0.6,1.8,0.1C32.1,15.5,32.1,14.7,31.7,14.2L31.7,14.2z"/>
	
		<linearGradient id="SVGID_00000054267342347250375540000009775794233296829358_" gradientUnits="userSpaceOnUse" x1="-0.7693" y1="26.3926" x2="18.5681" y2="-2.0578" gradientTransform="matrix(1 0 0 -1 0 33.8268)">
		<stop  offset="0" style="stop-color:#FBEE41"/>
		<stop  offset="4.000000e-02" style="stop-color:#FBE233"/>
		<stop  offset="0.12" style="stop-color:#FBD221"/>
		<stop  offset="0.2" style="stop-color:#FBC915"/>
		<stop  offset="0.28" style="stop-color:#FCC612"/>
		<stop  offset="0.67" style="stop-color:#F18F40"/>
		<stop  offset="0.89" style="stop-color:#EC683B"/>
		<stop  offset="1" style="stop-color:#E63F39"/>
	</linearGradient>
	<path style="fill:url(#SVGID_00000054267342347250375540000009775794233296829358_);" d="M15.7,23.4c-2.8,0-5.7-1-8.7-3
		c-1.7-1.1-3.3-2.5-4.8-4c-0.5-0.5-1.3-0.5-1.8,0c-0.5,0.5-0.5,1.3,0,1.8c1.6,1.6,3.3,3.1,5.2,4.3C9,24.8,12.4,26,15.7,26
		c0.7,0,1.3-0.6,1.3-1.3C17,24,16.4,23.4,15.7,23.4L15.7,23.4z"/>
	
		<linearGradient id="SVGID_00000019663968332469095790000004572178271389311900_" gradientUnits="userSpaceOnUse" x1="6.7293" y1="31.4897" x2="26.0652" y2="3.0376" gradientTransform="matrix(1 0 0 -1 0 33.8268)">
		<stop  offset="0" style="stop-color:#FBEE41"/>
		<stop  offset="4.000000e-02" style="stop-color:#FBE233"/>
		<stop  offset="0.12" style="stop-color:#FBD221"/>
		<stop  offset="0.2" style="stop-color:#FBC915"/>
		<stop  offset="0.28" style="stop-color:#FCC612"/>
		<stop  offset="0.67" style="stop-color:#F18F40"/>
		<stop  offset="0.89" style="stop-color:#EC683B"/>
		<stop  offset="1" style="stop-color:#E63F39"/>
	</linearGradient>
	<path style="fill:url(#SVGID_00000019663968332469095790000004572178271389311900_);" d="M15.7,12.2c-1.9,0-3.4,1.5-3.4,3.4
		s1.5,3.4,3.4,3.4s3.4-1.5,3.4-3.4C19,13.7,17.5,12.2,15.7,12.2z"/>
	
		<linearGradient id="SVGID_00000123418280190385951270000016062850268713770884_" gradientUnits="userSpaceOnUse" x1="0.3114" y1="27.1268" x2="19.6473" y2="-1.3237" gradientTransform="matrix(1 0 0 -1 0 33.8268)">
		<stop  offset="0" style="stop-color:#FBEE41"/>
		<stop  offset="4.000000e-02" style="stop-color:#FBE233"/>
		<stop  offset="0.12" style="stop-color:#FBD221"/>
		<stop  offset="0.2" style="stop-color:#FBC915"/>
		<stop  offset="0.28" style="stop-color:#FCC612"/>
		<stop  offset="0.67" style="stop-color:#F18F40"/>
		<stop  offset="0.89" style="stop-color:#EC683B"/>
		<stop  offset="1" style="stop-color:#E63F39"/>
	</linearGradient>
	<path style="fill:url(#SVGID_00000123418280190385951270000016062850268713770884_);" d="M3.9,14.1c1.2,0,2.2-1,2.2-2.2
		s-1-2.2-2.2-2.2s-2.2,1-2.2,2.2S2.7,14.1,3.9,14.1z"/>
	
		<linearGradient id="SVGID_00000046312283338233406710000017708281123561419942_" gradientUnits="userSpaceOnUse" x1="5.5334" y1="30.6755" x2="24.8692" y2="2.2251" gradientTransform="matrix(1 0 0 -1 0 33.8268)">
		<stop  offset="0" style="stop-color:#FBEE41"/>
		<stop  offset="4.000000e-02" style="stop-color:#FBE233"/>
		<stop  offset="0.12" style="stop-color:#FBD221"/>
		<stop  offset="0.2" style="stop-color:#FBC915"/>
		<stop  offset="0.28" style="stop-color:#FCC612"/>
		<stop  offset="0.67" style="stop-color:#F18F40"/>
		<stop  offset="0.89" style="stop-color:#EC683B"/>
		<stop  offset="1" style="stop-color:#E63F39"/>
	</linearGradient>
	<path style="fill:url(#SVGID_00000046312283338233406710000017708281123561419942_);" d="M9.2,10.8c1.2,0,2.2-1,2.2-2.2
		s-1-2.2-2.2-2.2s-2.2,1-2.2,2.2S8,10.8,9.2,10.8z"/>
	
		<linearGradient id="SVGID_00000060011811412642565290000014654251011996537484_" gradientUnits="userSpaceOnUse" x1="6.9321" y1="31.6276" x2="26.2696" y2="3.1772" gradientTransform="matrix(1 0 0 -1 0 33.8268)">
		<stop  offset="0" style="stop-color:#FBEE41"/>
		<stop  offset="4.000000e-02" style="stop-color:#FBE233"/>
		<stop  offset="0.12" style="stop-color:#FBD221"/>
		<stop  offset="0.2" style="stop-color:#FBC915"/>
		<stop  offset="0.28" style="stop-color:#FCC612"/>
		<stop  offset="0.67" style="stop-color:#F18F40"/>
		<stop  offset="0.89" style="stop-color:#EC683B"/>
		<stop  offset="1" style="stop-color:#E63F39"/>
	</linearGradient>
	<circle style="fill:url(#SVGID_00000060011811412642565290000014654251011996537484_);" cx="21.8" cy="24" r="2.2"/>
	
		<linearGradient id="SVGID_00000099646761949148487430000012683796861318055300_" gradientUnits="userSpaceOnUse" x1="13.0916" y1="35.8133" x2="32.4274" y2="7.3629" gradientTransform="matrix(1 0 0 -1 0 33.8268)">
		<stop  offset="0" style="stop-color:#FBEE41"/>
		<stop  offset="4.000000e-02" style="stop-color:#FBE233"/>
		<stop  offset="0.12" style="stop-color:#FBD221"/>
		<stop  offset="0.2" style="stop-color:#FBC915"/>
		<stop  offset="0.28" style="stop-color:#FCC612"/>
		<stop  offset="0.67" style="stop-color:#F18F40"/>
		<stop  offset="0.89" style="stop-color:#EC683B"/>
		<stop  offset="1" style="stop-color:#E63F39"/>
	</linearGradient>
	<path style="fill:url(#SVGID_00000099646761949148487430000012683796861318055300_);" d="M28.7,18.8c-1.2,0-2.2,1-2.2,2.2
		c0,1.2,1,2.2,2.2,2.2c1.2,0,2.2-1,2.2-2.2S29.9,18.8,28.7,18.8z"/>
</g>
</svg>
