<svg id="Layer_1" data-name="Layer 1" xmlns="http://www.w3.org/2000/svg" viewBox="0 0 25.265 45.762"><defs><style>.cls-1{fill:#e8e9ec;}.cls-2{fill:none;stroke:#e8e9ec;stroke-width:0.5px;}</style></defs><title>fb2</title><path class="cls-1" d="M301.743,446.57v19.389h-6.662V446.614h-6.947v-6.342h6.886l.06-6.747c0-.037-.057-3.692,1.36-5.675a7.907,7.907,0,0,1,4.811-3.5,31.61,31.61,0,0,1,8.2-.258l.141,5.353h-3.31a4.772,4.772,0,0,0-3.513,1.481,4.31,4.31,0,0,0-1.017,2.944v6.376h7.173l-.749,6.325Zm1.64-12.717,0-.058a2.752,2.752,0,0,1,.62-1.8,3.235,3.235,0,0,1,2.345-.922h4.92l-.223-8.465-.714-.07a34.364,34.364,0,0,0-9.405.22,9.449,9.449,0,0,0-5.808,4.15c-1.694,2.373-1.67,6.216-1.662,6.638l-.046,5.1h-6.9v9.6h6.947v19.344h9.915V448.2h6.256l1.135-9.578h-7.377Z" transform="translate(-286.257 -422.073)"/><path class="cls-2" d="M301.743,446.57v19.389h-6.662V446.614h-6.947v-6.342h6.886l.06-6.747c0-.037-.057-3.692,1.36-5.675a7.907,7.907,0,0,1,4.811-3.5,31.61,31.61,0,0,1,8.2-.258l.141,5.353h-3.31a4.772,4.772,0,0,0-3.513,1.481,4.31,4.31,0,0,0-1.017,2.944v6.376h7.173l-.749,6.325Zm1.64-12.717,0-.058a2.752,2.752,0,0,1,.62-1.8,3.235,3.235,0,0,1,2.345-.922h4.92l-.223-8.465-.714-.07a34.364,34.364,0,0,0-9.405.22,9.449,9.449,0,0,0-5.808,4.15c-1.694,2.373-1.67,6.216-1.662,6.638l-.046,5.1h-6.9v9.6h6.947v19.344h9.915V448.2h6.256l1.135-9.578h-7.377Z" transform="translate(-286.257 -422.073)"/></svg>