<svg id="Layer_1" data-name="Layer 1" xmlns="http://www.w3.org/2000/svg" viewBox="0 0 132.906 84.537"><defs><style>.cls-1{fill:#979797;}</style></defs><title>FOOTER_LOGO</title><path class="cls-1" d="M370.913,388.207h0C361.305,377.739,335.6,353.4,304.542,353.4a5.334,5.334,0,1,0,0,10.667c6.973,0,31.8,2.258,58.51,31.346a5.335,5.335,0,0,0,7.861-7.215Z" transform="translate(-239.399 -353.402)"/><path class="cls-1" d="M304.542,426.442c-11.554,0-23.719-4.126-36.161-12.257a121.758,121.758,0,0,1-19.835-16.433,5.333,5.333,0,1,0-7.62,7.463,132.805,132.805,0,0,0,21.617,17.9c14.2,9.289,28.336,14,42,14a5.337,5.337,0,0,0,0-10.674Z" transform="translate(-239.399 -353.402)"/><path class="cls-1" d="M304.542,379.706a13.941,13.941,0,1,0,13.94,13.94,13.941,13.941,0,0,0-13.94-13.94" transform="translate(-239.399 -353.402)"/><path class="cls-1" d="M255.548,387.9a8.988,8.988,0,1,1,0-.007Z" transform="translate(-239.399 -353.402)"/><path class="cls-1" d="M277.733,373.876a8.988,8.988,0,1,1,0-.007Z" transform="translate(-239.399 -353.402)"/><path class="cls-1" d="M329.774,419.972a8.984,8.984,0,1,1-8.984,8.984,8.984,8.984,0,0,1,8.984-8.984" transform="translate(-239.399 -353.402)"/><path class="cls-1" d="M358.663,407.459a8.984,8.984,0,1,0,8.984,8.984,8.986,8.986,0,0,0-8.984-8.984" transform="translate(-239.399 -353.402)"/></svg>