<svg id="Layer_1" data-name="Layer 1" xmlns="http://www.w3.org/2000/svg" viewBox="0 0 45.204 45.204"><defs><style>.cls-1{fill:#e8e9ec;}.cls-2{fill:none;stroke:#e8e9ec;stroke-width:0.5px;}</style></defs><title>globe3</title><path class="cls-1" d="M298.89,465.65a20.68,20.68,0,0,1-4.746-.555c-.011-.249-.041-.833-.119-1.954-.049-.693-.049-.693.775-1.2.3-.182.651-.4,1.073-.7,1.481-1.039,2.933-4.75,4.179-8.146.2-.544.344-.946.421-1.11a2.029,2.029,0,0,1,.4-.527,1.862,1.862,0,0,0,.612-1.948c-.313-1.139-1.333-1.242-2.232-1.332a10.955,10.955,0,0,1-1.468-.224,10.04,10.04,0,0,1-4.245-2.781,6.131,6.131,0,0,0-3.852-1.7,2.292,2.292,0,0,0-1.564.526,6.048,6.048,0,0,1-1.773.9,5.929,5.929,0,0,0-.3-2.056,2.511,2.511,0,0,1-.182-1.026,1.294,1.294,0,0,0-.463-1.138,1.346,1.346,0,0,0-1.617.017,1.239,1.239,0,0,1-.682.225,1.63,1.63,0,0,1-.093-.943,1.951,1.951,0,0,1,.835-1.434.334.334,0,0,1,.309-.047c.51.165,1.143,1.144,1.411,1.755l.208.477.52.02c.068,0,1.6.031,1.851-2.179.123-.838,3.272-4.915,5.677-7.158a3.277,3.277,0,0,1,.878-.022,2.086,2.086,0,0,0,1.223-.154l.33-.226.081-.336a1.587,1.587,0,0,0-.367-1.218c-.027-.041-.052-.082-.076-.121.494-1.461-.3-3.666-.759-4.733a20.716,20.716,0,0,1,3.753-.347c.517,0,1.028.026,1.536.063,0,.046,0,.083,0,.132-.033.865-.1,2.665,1.722,3.2a3.955,3.955,0,0,1,.956.423,2.284,2.284,0,0,0,2.113.226,5.757,5.757,0,0,1,.756-.165,15.471,15.471,0,0,1-2.19,3.451c-.091.1-.188.209-.286.314-.554.595-1.183,1.27-.946,2.076a1.554,1.554,0,0,0,1.244,1,2.847,2.847,0,0,0,2.337-.233,4.456,4.456,0,0,1,.812-.331,2.444,2.444,0,0,0,.9-.463,2.135,2.135,0,0,0,1.714,1.1,5.758,5.758,0,0,1,1.307.37,2.311,2.311,0,0,0,1.673.157,5.728,5.728,0,0,0,1.127-.525c.124-.069.29-.162.415-.222a2.146,2.146,0,0,1,.4.45,1.724,1.724,0,0,1-.351.12,11.239,11.239,0,0,0-1.643.533,2.509,2.509,0,0,1-1.674.159,6.212,6.212,0,0,1-1.869-.648,3.536,3.536,0,0,0-2.82-.473l-.224.123a.916.916,0,0,1-.615.112c-1.3-.226-1.82.882-2.1,1.479l-.08.171a2.486,2.486,0,0,1-.429.385,2.511,2.511,0,0,0-1.242,2.163l.018.27c.152,2.346.433,4.639,1.458,5.532a5.026,5.026,0,0,0,4.244.836,14.581,14.581,0,0,1,3.066.165,29.482,29.482,0,0,1,1.6,3.654,4.3,4.3,0,0,0,.631,1.153c.235.342.59.859.509,1.056s-.809,2.01-.354,2.986a1.12,1.12,0,0,0,.674.611.921.921,0,0,0,.281.043c1.268,0,2.849-2.423,3.208-3.371a13.576,13.576,0,0,0,.5-2.143,10.427,10.427,0,0,1,.869-3.116l.259-.386c.361-.536.794-1.182,1.193-1.874,0,.043,0,.084,0,.127a20.719,20.719,0,0,1-20.7,20.7m-6.518-2.4c-.159-.427-.364-.9-.577-1.392a11.461,11.461,0,0,1-1-2.893,5.964,5.964,0,0,1,.044-.88,4.41,4.41,0,0,0-1.632-4.5,6.723,6.723,0,0,1-2.818-3.757,13.714,13.714,0,0,1,.44-3.336,7.666,7.666,0,0,0,2.4-1.256.758.758,0,0,1,.457-.1,4.441,4.441,0,0,1,2.727,1.259,11.466,11.466,0,0,0,4.985,3.177,12.234,12.234,0,0,0,1.687.261,3.8,3.8,0,0,1,.8.124.341.341,0,0,1,.018.093,1.687,1.687,0,0,1-.233.276,3.565,3.565,0,0,0-.7.965c-.092.2-.227.562-.476,1.241-.655,1.787-2.4,6.534-3.572,7.36-.391.273-.719.474-.992.642-1.07.657-1.672,1.108-1.561,2.717m-14.178-18.294a20.66,20.66,0,0,1,.586-4.88,3.081,3.081,0,0,0,.729,1.6,2.871,2.871,0,0,1,.241.7,4.1,4.1,0,0,0,1.155,2.183,15.419,15.419,0,0,0,4.221,1.909,16.414,16.414,0,0,0-.388,3.474c.083,1.213,1.208,3.286,3.483,4.973,1.173.87,1.079,1.863.969,3.012a6.983,6.983,0,0,0-.046,1.154,12,12,0,0,0,1.131,3.435c.244.561.474,1.091.619,1.518l0,.011a20.728,20.728,0,0,1-12.7-19.09m15.294-19.976c.57,1.245,1.182,3.234.8,3.919a.942.942,0,0,0-.047.822,1.962,1.962,0,0,0-1.487.445c-2.038,1.891-6.055,6.562-6.248,8.217,0,.046-.011.089-.017.129a3.837,3.837,0,0,0-1.817-1.584,1.985,1.985,0,0,0-1.665.195,3.775,3.775,0,0,0-1.621,3.79,1.82,1.82,0,0,0,1.331,1.627,2.415,2.415,0,0,0,1.518-.206,4.9,4.9,0,0,0,.251,1.052,4.051,4.051,0,0,1,.212,1.2,10.821,10.821,0,0,1-2.707-1.271,2.679,2.679,0,0,1-.643-1.363,2.8,2.8,0,0,0-.709-1.472,11.6,11.6,0,0,1-.5-4.173c0-.026-.009-.049-.009-.075a20.783,20.783,0,0,1,13.357-11.248m25.8,16.153a.867.867,0,0,0-.134.345c-.07,1.279-1.36,3.17-2.121,4.3l-.273.4a10.949,10.949,0,0,0-1.121,3.733,13.168,13.168,0,0,1-.419,1.854,5.967,5.967,0,0,1-.926,1.5,5.457,5.457,0,0,1,.191-.545,2.761,2.761,0,0,0-.67-2.628,3.545,3.545,0,0,1-.413-.69c-.012-.045-1.525-4.479-2.532-4.741-.145-.037-3.208-.516-4.239-.177a3.413,3.413,0,0,1-2.64-.512c-.294-.256-.687-1.226-.892-4.39l-.019-.279c-.015-.211.148-.379.615-.747a2.9,2.9,0,0,0,.895-.967l.088-.185a2.057,2.057,0,0,1,.315-.552,2.561,2.561,0,0,0,1.765-.332,2.642,2.642,0,0,1,1.474.436,7.625,7.625,0,0,0,2.368.794,4.036,4.036,0,0,0,2.5-.265,9.678,9.678,0,0,1,1.426-.463c1.206-.3,1.553-.93,1.633-1.407.212-1.274-1.341-2.289-1.353-2.3-.649-.422-1.339-.037-1.946.3a4.577,4.577,0,0,1-.793.384c-.164.046-.2.04-.6-.113a7.346,7.346,0,0,0-1.644-.462c-.482-.079-.5-.146-.588-.47a1.593,1.593,0,0,0-.719-1.066,1.086,1.086,0,0,0-.893-.126,1.126,1.126,0,0,0-.672.674.583.583,0,0,1-.469.395,5.912,5.912,0,0,0-1.088.439,1.2,1.2,0,0,1-1.032.149c.113-.133.246-.277.346-.384s.221-.238.323-.355a16.58,16.58,0,0,0,2.549-4.115,1.544,1.544,0,0,0-.213-1.66c-.6-.632-1.6-.468-2.589-.195-.5.138-.528.123-.841-.059a4.793,4.793,0,0,0-1.258-.58c-.474-.14-.477-.445-.477-1.554V424.5a21.124,21.124,0,0,1,17.086,16.627M298.89,422.6a22.352,22.352,0,1,0,22.352,22.352A22.379,22.379,0,0,0,298.89,422.6" transform="translate(-276.288 -422.352)"/><path class="cls-2" d="M298.89,465.65a20.68,20.68,0,0,1-4.746-.555c-.011-.249-.041-.833-.119-1.954-.049-.693-.049-.693.775-1.2.3-.182.651-.4,1.073-.7,1.481-1.039,2.933-4.75,4.179-8.146.2-.544.344-.946.421-1.11a2.029,2.029,0,0,1,.4-.527,1.862,1.862,0,0,0,.612-1.948c-.313-1.139-1.333-1.242-2.232-1.332a10.955,10.955,0,0,1-1.468-.224,10.04,10.04,0,0,1-4.245-2.781,6.131,6.131,0,0,0-3.852-1.7,2.292,2.292,0,0,0-1.564.526,6.048,6.048,0,0,1-1.773.9,5.929,5.929,0,0,0-.3-2.056,2.511,2.511,0,0,1-.182-1.026,1.294,1.294,0,0,0-.463-1.138,1.346,1.346,0,0,0-1.617.017,1.239,1.239,0,0,1-.682.225,1.63,1.63,0,0,1-.093-.943,1.951,1.951,0,0,1,.835-1.434.334.334,0,0,1,.309-.047c.51.165,1.143,1.144,1.411,1.755l.208.477.52.02c.068,0,1.6.031,1.851-2.179.123-.838,3.272-4.915,5.677-7.158a3.277,3.277,0,0,1,.878-.022,2.086,2.086,0,0,0,1.223-.154l.33-.226.081-.336a1.587,1.587,0,0,0-.367-1.218c-.027-.041-.052-.082-.076-.121.494-1.461-.3-3.666-.759-4.733a20.716,20.716,0,0,1,3.753-.347c.517,0,1.028.026,1.536.063,0,.046,0,.083,0,.132-.033.865-.1,2.665,1.722,3.2a3.955,3.955,0,0,1,.956.423,2.284,2.284,0,0,0,2.113.226,5.757,5.757,0,0,1,.756-.165,15.471,15.471,0,0,1-2.19,3.451c-.091.1-.188.209-.286.314-.554.595-1.183,1.27-.946,2.076a1.554,1.554,0,0,0,1.244,1,2.847,2.847,0,0,0,2.337-.233,4.456,4.456,0,0,1,.812-.331,2.444,2.444,0,0,0,.9-.463,2.135,2.135,0,0,0,1.714,1.1,5.758,5.758,0,0,1,1.307.37,2.311,2.311,0,0,0,1.673.157,5.728,5.728,0,0,0,1.127-.525c.124-.069.29-.162.415-.222a2.146,2.146,0,0,1,.4.45,1.724,1.724,0,0,1-.351.12,11.239,11.239,0,0,0-1.643.533,2.509,2.509,0,0,1-1.674.159,6.212,6.212,0,0,1-1.869-.648,3.536,3.536,0,0,0-2.82-.473l-.224.123a.916.916,0,0,1-.615.112c-1.3-.226-1.82.882-2.1,1.479l-.08.171a2.486,2.486,0,0,1-.429.385,2.511,2.511,0,0,0-1.242,2.163l.018.27c.152,2.346.433,4.639,1.458,5.532a5.026,5.026,0,0,0,4.244.836,14.581,14.581,0,0,1,3.066.165,29.482,29.482,0,0,1,1.6,3.654,4.3,4.3,0,0,0,.631,1.153c.235.342.59.859.509,1.056s-.809,2.01-.354,2.986a1.12,1.12,0,0,0,.674.611.921.921,0,0,0,.281.043c1.268,0,2.849-2.423,3.208-3.371a13.576,13.576,0,0,0,.5-2.143,10.427,10.427,0,0,1,.869-3.116l.259-.386c.361-.536.794-1.182,1.193-1.874,0,.043,0,.084,0,.127a20.719,20.719,0,0,1-20.7,20.7m-6.518-2.4c-.159-.427-.364-.9-.577-1.392a11.461,11.461,0,0,1-1-2.893,5.964,5.964,0,0,1,.044-.88,4.41,4.41,0,0,0-1.632-4.5,6.723,6.723,0,0,1-2.818-3.757,13.714,13.714,0,0,1,.44-3.336,7.666,7.666,0,0,0,2.4-1.256.758.758,0,0,1,.457-.1,4.441,4.441,0,0,1,2.727,1.259,11.466,11.466,0,0,0,4.985,3.177,12.234,12.234,0,0,0,1.687.261,3.8,3.8,0,0,1,.8.124.341.341,0,0,1,.018.093,1.687,1.687,0,0,1-.233.276,3.565,3.565,0,0,0-.7.965c-.092.2-.227.562-.476,1.241-.655,1.787-2.4,6.534-3.572,7.36-.391.273-.719.474-.992.642-1.07.657-1.672,1.108-1.561,2.717m-14.178-18.294a20.66,20.66,0,0,1,.586-4.88,3.081,3.081,0,0,0,.729,1.6,2.871,2.871,0,0,1,.241.7,4.1,4.1,0,0,0,1.155,2.183,15.419,15.419,0,0,0,4.221,1.909,16.414,16.414,0,0,0-.388,3.474c.083,1.213,1.208,3.286,3.483,4.973,1.173.87,1.079,1.863.969,3.012a6.983,6.983,0,0,0-.046,1.154,12,12,0,0,0,1.131,3.435c.244.561.474,1.091.619,1.518l0,.011a20.728,20.728,0,0,1-12.7-19.09m15.294-19.976c.57,1.245,1.182,3.234.8,3.919a.942.942,0,0,0-.047.822,1.962,1.962,0,0,0-1.487.445c-2.038,1.891-6.055,6.562-6.248,8.217,0,.046-.011.089-.017.129a3.837,3.837,0,0,0-1.817-1.584,1.985,1.985,0,0,0-1.665.195,3.775,3.775,0,0,0-1.621,3.79,1.82,1.82,0,0,0,1.331,1.627,2.415,2.415,0,0,0,1.518-.206,4.9,4.9,0,0,0,.251,1.052,4.051,4.051,0,0,1,.212,1.2,10.821,10.821,0,0,1-2.707-1.271,2.679,2.679,0,0,1-.643-1.363,2.8,2.8,0,0,0-.709-1.472,11.6,11.6,0,0,1-.5-4.173c0-.026-.009-.049-.009-.075a20.783,20.783,0,0,1,13.357-11.248m25.8,16.153a.867.867,0,0,0-.134.345c-.07,1.279-1.36,3.17-2.121,4.3l-.273.4a10.949,10.949,0,0,0-1.121,3.733,13.168,13.168,0,0,1-.419,1.854,5.967,5.967,0,0,1-.926,1.5,5.457,5.457,0,0,1,.191-.545,2.761,2.761,0,0,0-.67-2.628,3.545,3.545,0,0,1-.413-.69c-.012-.045-1.525-4.479-2.532-4.741-.145-.037-3.208-.516-4.239-.177a3.413,3.413,0,0,1-2.64-.512c-.294-.256-.687-1.226-.892-4.39l-.019-.279c-.015-.211.148-.379.615-.747a2.9,2.9,0,0,0,.895-.967l.088-.185a2.057,2.057,0,0,1,.315-.552,2.561,2.561,0,0,0,1.765-.332,2.642,2.642,0,0,1,1.474.436,7.625,7.625,0,0,0,2.368.794,4.036,4.036,0,0,0,2.5-.265,9.678,9.678,0,0,1,1.426-.463c1.206-.3,1.553-.93,1.633-1.407.212-1.274-1.341-2.289-1.353-2.3-.649-.422-1.339-.037-1.946.3a4.577,4.577,0,0,1-.793.384c-.164.046-.2.04-.6-.113a7.346,7.346,0,0,0-1.644-.462c-.482-.079-.5-.146-.588-.47a1.593,1.593,0,0,0-.719-1.066,1.086,1.086,0,0,0-.893-.126,1.126,1.126,0,0,0-.672.674.583.583,0,0,1-.469.395,5.912,5.912,0,0,0-1.088.439,1.2,1.2,0,0,1-1.032.149c.113-.133.246-.277.346-.384s.221-.238.323-.355a16.58,16.58,0,0,0,2.549-4.115,1.544,1.544,0,0,0-.213-1.66c-.6-.632-1.6-.468-2.589-.195-.5.138-.528.123-.841-.059a4.793,4.793,0,0,0-1.258-.58c-.474-.14-.477-.445-.477-1.554V424.5a21.124,21.124,0,0,1,17.086,16.627M298.89,422.6a22.352,22.352,0,1,0,22.352,22.352A22.379,22.379,0,0,0,298.89,422.6" transform="translate(-276.288 -422.352)"/></svg>