<svg id="Layer_1" data-name="Layer 1" xmlns="http://www.w3.org/2000/svg" viewBox="0 0 78.26 78.28"><defs><style>.cls-1{fill:#fff;}</style></defs><title>monedi</title><path class="cls-1" d="M57.86,53.92A26.82,26.82,0,1,0,26.27,21.26a27.6,27.6,0,0,0-.68,4.34,26.811,26.811,0,0,0,2.1,53.54A26.34,26.34,0,0,0,54.4,54.41a27.059,27.059,0,0,0,3.47-.48ZM52.32,3.76a23.913,23.913,0,0,1,4.94,47.31,24.226,24.226,0,0,1-2.82.4,26.677,26.677,0,0,0-1.72-8.65,1.946,1.946,0,0,0,.31.07,1.451,1.451,0,0,0,1.45-1.45v-.53c3.06-.44,5.9-2.07,6.94-5.14a6.732,6.732,0,0,0-.22-5.49c-1.04-1.95-3.12-3.39-6.72-4.63V16.4a7.148,7.148,0,0,1,4.65,2.53,1.444,1.444,0,0,0,2.01.42,1.461,1.461,0,0,0,.42-2.01c-1.33-2.03-4.03-3.45-7.07-3.88V12.42a1.45,1.45,0,0,0-2.9,0v.94c-3.32.24-5.94,1.71-7.23,4.08a5.781,5.781,0,0,0-.38,5.19c.68,1.58,2.47,3.73,7.16,5.01.16.04.29.09.45.13V38.05c-.25-.03-.52-.06-.76-.11a1.229,1.229,0,0,0-.54,0A26.833,26.833,0,0,0,28.52,25.52,23.69,23.69,0,0,1,52.33,3.74ZM51.6,24.77c-2.61-.76-4.36-1.91-4.94-3.25a3.009,3.009,0,0,1,.26-2.66c.78-1.44,2.48-2.35,4.68-2.56Zm2.9,3.98c2.22.87,3.58,1.82,4.17,2.91a3.91,3.91,0,0,1,.03,3.2A5.2,5.2,0,0,1,54.5,38ZM27.69,76.23A23.91,23.91,0,1,1,51.6,52.32,23.936,23.936,0,0,1,27.69,76.23Z" transform="translate(-0.87 -0.86)"/><path class="cls-1" d="M7.33,27.52a1.39,1.39,0,0,0,.27.03,1.444,1.444,0,0,0,1.42-1.17A22.08,22.08,0,0,1,22.65,10.13l-2.56,3.83a1.461,1.461,0,0,0,.4,2.02,1.388,1.388,0,0,0,.8.24,1.423,1.423,0,0,0,1.2-.65l4.99-7.46a1.447,1.447,0,0,0-.89-2.22L17.67,3.92a1.453,1.453,0,1,0-.62,2.84l4.04.89a25,25,0,0,0-14.9,18.2,1.426,1.426,0,0,0,1.14,1.68Z" transform="translate(-0.87 -0.86)"/><path class="cls-1" d="M72.97,51.76a1.439,1.439,0,0,0-1.7,1.14A22.086,22.086,0,0,1,57.59,69.11l2.57-3.82a1.455,1.455,0,1,0-2.41-1.63l-5.02,7.45a1.5,1.5,0,0,0-.15,1.35,1.434,1.434,0,0,0,1.03.88l8.92,2a1.865,1.865,0,0,0,.32.04,1.447,1.447,0,0,0,.31-2.86l-4.03-.9A25.025,25.025,0,0,0,74.09,53.47a1.437,1.437,0,0,0-1.13-1.71Z" transform="translate(-0.87 -0.86)"/><path class="cls-1" d="M27.01,43.07a1.208,1.208,0,0,1,.38.92V60.6a1.259,1.259,0,0,1-.37.93,1.273,1.273,0,0,1-.97.38,1.367,1.367,0,0,1-.99-.37,1.244,1.244,0,0,1-.38-.95V47.88l-5.33,8.07a1.739,1.739,0,0,1-.48.41.975.975,0,0,1-.59.14.919.919,0,0,1-.56-.14,1.739,1.739,0,0,1-.48-.41l-5.35-8.32V60.59a1.351,1.351,0,0,1-.34.95,1.191,1.191,0,0,1-.92.37,1.127,1.127,0,0,1-.89-.37,1.334,1.334,0,0,1-.34-.95V43.98a1.331,1.331,0,0,1,1.34-1.32,1.417,1.417,0,0,1,.65.16,1.456,1.456,0,0,1,.51.44l6.51,9.86L25,43.26a1.315,1.315,0,0,1,1.1-.6,1.369,1.369,0,0,1,.93.4Z" transform="translate(-0.87 -0.86)"/><path class="cls-1" d="M45.71,59.95a1.315,1.315,0,0,1,.25.8,1.169,1.169,0,0,1-.4.93,1.3,1.3,0,0,1-.89.36,1.226,1.226,0,0,1-1.07-.55l-5.33-7.14-5.22,7.11a1.267,1.267,0,0,1-1.07.58,1.139,1.139,0,0,1-.84-.34,1.071,1.071,0,0,1-.34-.78,1.521,1.521,0,0,1,.33-.91l5.63-7.66L31.1,44.74a1.288,1.288,0,0,1-.27-.8,1.212,1.212,0,0,1,.4-.93,1.27,1.27,0,0,1,.92-.38,1.38,1.38,0,0,1,.59.14,1.257,1.257,0,0,1,.48.41l5.27,7.08,5.22-7a1.323,1.323,0,0,1,1.04-.6,1.189,1.189,0,0,1,.87.37,1.156,1.156,0,0,1,.37.84,1.4,1.4,0,0,1-.27.8L40.01,52.3l5.71,7.66Z" transform="translate(-0.87 -0.86)"/></svg>