<svg id="Layer_1" data-name="Layer 1" xmlns="http://www.w3.org/2000/svg" viewBox="0 0 48.158 45.204"><defs><style>.cls-1{fill:#e8e9ec;}.cls-2{fill:none;stroke:#e8e9ec;stroke-width:0.5px;}</style></defs><title>icon3</title><path class="cls-1" d="M284.853,393.308l13.416,4.051a.891.891,0,1,0,.515-1.707l-13.039-3.937.975-1.277a1.4,1.4,0,0,1,.781-.42l17.915-1.2a.892.892,0,1,0-.12-1.779l-17.914,1.206a3.1,3.1,0,0,0-2.08,1.118l-1.213,1.59a1.465,1.465,0,0,0,.764,2.36" transform="translate(-281.698 -373.069)"/><path class="cls-2" d="M284.853,393.308l13.416,4.051a.891.891,0,1,0,.515-1.707l-13.039-3.937.975-1.277a1.4,1.4,0,0,1,.781-.42l17.915-1.2a.892.892,0,1,0-.12-1.779l-17.914,1.206a3.1,3.1,0,0,0-2.08,1.118l-1.213,1.59a1.465,1.465,0,0,0,.764,2.36" transform="translate(-281.698 -373.069)"/><path class="cls-1" d="M327.746,410.632l-1.251,1.595-13.376-9.577-.245-.124a3.953,3.953,0,0,0-4.3,1.307l-2.951,3.867c-.857,1.126-7.7,7.845-12.731,8.522a3.2,3.2,0,0,1-.346.018,2.239,2.239,0,0,1-1.018-.2c.052-.091.127-.212.235-.368l.671-.969-8.519-2.917,1-1.315a1.623,1.623,0,0,1,.834-.484l9.723-1.309.222-.356c2.294-3.689,5.416-7.938,5.9-8.571l16.177-21.516c1.208-1.584,5.781-3.133,8.313-3.133a1.935,1.935,0,0,1,.877.12l.107.061a1.241,1.241,0,0,1,.195.163c.639.621.363,3.1-1.532,5.583L317.762,391.8l10.023,18.305a.64.64,0,0,1-.039.524m1.6-1.379-9.476-17.306,7.286-9.847c2.309-3.026,2.89-6.437,1.365-7.918a2.78,2.78,0,0,0-.62-.475,3.443,3.443,0,0,0-1.817-.388c-2.709,0-7.972,1.529-9.735,3.84l-16.177,21.515c-.471.619-3.463,4.689-5.768,8.349l-8.892,1.2a3.331,3.331,0,0,0-2.014,1.17l-1.213,1.59a1.494,1.494,0,0,0,.723,2.382l6.728,2.3a1.287,1.287,0,0,0,.092,1.191,3.133,3.133,0,0,0,2.715,1.167,4.485,4.485,0,0,0,.581-.034c5.592-.751,12.857-7.821,13.914-9.208l2.913-3.821a2.245,2.245,0,0,1,1.752-.818,2.394,2.394,0,0,1,.508.053l13.244,9.482a1.87,1.87,0,0,0,2.494-.374l1.212-1.59a2.391,2.391,0,0,0,.185-2.46" transform="translate(-281.698 -373.069)"/><path class="cls-2" d="M327.746,410.632l-1.251,1.595-13.376-9.577-.245-.124a3.953,3.953,0,0,0-4.3,1.307l-2.951,3.867c-.857,1.126-7.7,7.845-12.731,8.522a3.2,3.2,0,0,1-.346.018,2.239,2.239,0,0,1-1.018-.2c.052-.091.127-.212.235-.368l.671-.969-8.519-2.917,1-1.315a1.623,1.623,0,0,1,.834-.484l9.723-1.309.222-.356c2.294-3.689,5.416-7.938,5.9-8.571l16.177-21.516c1.208-1.584,5.781-3.133,8.313-3.133a1.935,1.935,0,0,1,.877.12l.107.061a1.241,1.241,0,0,1,.195.163c.639.621.363,3.1-1.532,5.583L317.762,391.8l10.023,18.305a.64.64,0,0,1-.039.524m1.6-1.379-9.476-17.306,7.286-9.847c2.309-3.026,2.89-6.437,1.365-7.918a2.78,2.78,0,0,0-.62-.475,3.443,3.443,0,0,0-1.817-.388c-2.709,0-7.972,1.529-9.735,3.84l-16.177,21.515c-.471.619-3.463,4.689-5.768,8.349l-8.892,1.2a3.331,3.331,0,0,0-2.014,1.17l-1.213,1.59a1.494,1.494,0,0,0,.723,2.382l6.728,2.3a1.287,1.287,0,0,0,.092,1.191,3.133,3.133,0,0,0,2.715,1.167,4.485,4.485,0,0,0,.581-.034c5.592-.751,12.857-7.821,13.914-9.208l2.913-3.821a2.245,2.245,0,0,1,1.752-.818,2.394,2.394,0,0,1,.508.053l13.244,9.482a1.87,1.87,0,0,0,2.494-.374l1.212-1.59a2.391,2.391,0,0,0,.185-2.46" transform="translate(-281.698 -373.069)"/><path class="cls-1" d="M320.769,381.169a1.216,1.216,0,0,0,.656.187,1.371,1.371,0,0,0,.3-.034c1.144-.261,2.586-2.352,3.345-3.576a.892.892,0,0,0-1.516-.939,12.1,12.1,0,0,1-2.158,2.731.891.891,0,0,0-.629,1.631" transform="translate(-281.698 -373.069)"/><path class="cls-2" d="M320.769,381.169a1.216,1.216,0,0,0,.656.187,1.371,1.371,0,0,0,.3-.034c1.144-.261,2.586-2.352,3.345-3.576a.892.892,0,0,0-1.516-.939,12.1,12.1,0,0,1-2.158,2.731.891.891,0,0,0-.629,1.631" transform="translate(-281.698 -373.069)"/></svg>