<svg id="Layer_1" data-name="Layer 1" xmlns="http://www.w3.org/2000/svg" viewBox="0 0 41.605 45.204"><defs><style>.cls-1{fill:#e8e9ec;}.cls-2{fill:none;stroke:#e8e9ec;stroke-width:0.5px;}</style></defs><title>icon2</title><path class="cls-1" d="M325.612,412.15c-.545-1.793-3.481-3.293-6.322-4.744-.749-.384-1.471-.752-2.1-1.1a.828.828,0,1,0-.811,1.444c.644.361,1.384.74,2.153,1.132,2.174,1.112,5.152,2.633,5.492,3.752a10.169,10.169,0,0,1,.742,3.288.6.6,0,0,1-.067.353,3.5,3.5,0,0,1-1.481.112c-.257-.008-.523-.018-.792-.018H289.317c-.2,0-.4,0-.6.008a3.656,3.656,0,0,1-1.658-.172.518.518,0,0,1-.086-.314c.067-.308.312-1.4.8-3.288.376-1.449,4.058-3.542,10.908-6.21a5.669,5.669,0,0,0,2.5-1.686.828.828,0,1,0-1.324-.993,4.128,4.128,0,0,1-1.735,1.122c-5.523,2.151-11.262,4.706-11.946,7.352-.592,2.286-.827,3.408-.838,3.454a.875.875,0,0,0-.017.17,2.11,2.11,0,0,0,.584,1.574,3.519,3.519,0,0,0,2.584.639h35.6a2.113,2.113,0,0,0,1.767-.558,2.061,2.061,0,0,0,.573-1.545,11.479,11.479,0,0,0-.814-3.769" transform="translate(-285.071 -373.069)"/><path class="cls-2" d="M325.612,412.15c-.545-1.793-3.481-3.293-6.322-4.744-.749-.384-1.471-.752-2.1-1.1a.828.828,0,1,0-.811,1.444c.644.361,1.384.74,2.153,1.132,2.174,1.112,5.152,2.633,5.492,3.752a10.169,10.169,0,0,1,.742,3.288.6.6,0,0,1-.067.353,3.5,3.5,0,0,1-1.481.112c-.257-.008-.523-.018-.792-.018H289.317c-.2,0-.4,0-.6.008a3.656,3.656,0,0,1-1.658-.172.518.518,0,0,1-.086-.314c.067-.308.312-1.4.8-3.288.376-1.449,4.058-3.542,10.908-6.21a5.669,5.669,0,0,0,2.5-1.686.828.828,0,1,0-1.324-.993,4.128,4.128,0,0,1-1.735,1.122c-5.523,2.151-11.262,4.706-11.946,7.352-.592,2.286-.827,3.408-.838,3.454a.875.875,0,0,0-.017.17,2.11,2.11,0,0,0,.584,1.574,3.519,3.519,0,0,0,2.584.639h35.6a2.113,2.113,0,0,0,1.767-.558,2.061,2.061,0,0,0,.573-1.545,11.479,11.479,0,0,0-.814-3.769" transform="translate(-285.071 -373.069)"/><path class="cls-1" d="M291.626,389.308a2.421,2.421,0,0,1,1.832-1.088l1.629,0a5.64,5.64,0,0,1,.024.694V395.8a5.506,5.506,0,0,1-.025.7h-1.628a2.425,2.425,0,0,1-1.823-1.067,7.419,7.419,0,0,1-.009-6.123m14.248-14.333a11.789,11.789,0,0,1,11.568,11.589h-.808a1.635,1.635,0,0,0-.964.281c-.682-3.494-2.819-8.833-9.526-8.833s-9.015,5.542-9.8,9.078c-.025-.03-.047-.061-.075-.09a1.57,1.57,0,0,0-1.156-.436H294.3a11.79,11.79,0,0,1,11.57-11.589m14.238,14.312a7.431,7.431,0,0,1,.01,6.123,2.421,2.421,0,0,1-1.832,1.088l-1.631,0a5.625,5.625,0,0,1-.024-.694V388.92a5.5,5.5,0,0,1,.025-.7h1.63a2.426,2.426,0,0,1,1.822,1.067m-5.8,4.775a.755.755,0,0,1-.414.361.825.825,0,0,0-.662.533,13.975,13.975,0,0,1-1.5,2.841c-.166.26-.334.523-.5.8a6.323,6.323,0,0,1-1.459,1.767c-2.14,1.774-3.651,1.56-3.7,1.553a.816.816,0,0,0-.156-.014,6.99,6.99,0,0,1-3.771-1.516,5.844,5.844,0,0,1-1.592-1.827c-.16-.263-.318-.513-.476-.759a13.386,13.386,0,0,1-1.491-2.852.888.888,0,0,0-.75-.546.736.736,0,0,1-.417-.353.81.81,0,0,0-.645-.412V390.7h0a.724.724,0,0,0,.805-.7,15.335,15.335,0,0,1,1.179-5.184c1.455-3.384,3.88-5.1,7.3-5.1,8.257,0,8.283,9.7,8.283,10.11,0,.456.644.823.644.823v3a.815.815,0,0,0-.67.415m-2.091,13.111-4.028.958a.845.845,0,0,1-1-.615.828.828,0,0,1,.614-1l4.027-.958a.881.881,0,0,1,.191-.022.828.828,0,0,1,.193,1.633m-18.76-9.019h1.655a1.566,1.566,0,0,0,1.156-.436,2.553,2.553,0,0,0,.5-1.923v-.081a2.232,2.232,0,0,0,.415.219,15.789,15.789,0,0,0,1.491,2.759c.152.236.305.478.46.731a7.3,7.3,0,0,0,2.006,2.283,8.559,8.559,0,0,0,4.7,1.852,3.164,3.164,0,0,0,.433.027,7.217,7.217,0,0,0,4.528-1.927,7.835,7.835,0,0,0,1.837-2.2c.163-.267.326-.521.486-.772a16.326,16.326,0,0,0,1.512-2.777,2.258,2.258,0,0,0,.341-.193v.077a2.557,2.557,0,0,0,.5,1.923,1.4,1.4,0,0,0,.326.236c-.056,1.948-.543,5.727-2.367,6.376a2.455,2.455,0,0,0-1.985-.378l-4.027.957a2.483,2.483,0,1,0,1.15,4.832l4.027-.958a2.485,2.485,0,0,0,1.841-2.99c-.006-.027-.019-.052-.026-.078,2.558-1.316,2.981-5.654,3.04-7.561h.834a4.088,4.088,0,0,0,3.331-2.039,9.116,9.116,0,0,0-.011-7.533,4.023,4.023,0,0,0-2.506-1.895,13.232,13.232,0,1,0-26.462,0,3.964,3.964,0,0,0-2.515,1.92,9.1,9.1,0,0,0,.01,7.532,4.078,4.078,0,0,0,3.321,2.018" transform="translate(-285.071 -373.069)"/><path class="cls-2" d="M291.626,389.308a2.421,2.421,0,0,1,1.832-1.088l1.629,0a5.64,5.64,0,0,1,.024.694V395.8a5.506,5.506,0,0,1-.025.7h-1.628a2.425,2.425,0,0,1-1.823-1.067,7.419,7.419,0,0,1-.009-6.123m14.248-14.333a11.789,11.789,0,0,1,11.568,11.589h-.808a1.635,1.635,0,0,0-.964.281c-.682-3.494-2.819-8.833-9.526-8.833s-9.015,5.542-9.8,9.078c-.025-.03-.047-.061-.075-.09a1.57,1.57,0,0,0-1.156-.436H294.3a11.79,11.79,0,0,1,11.57-11.589m14.238,14.312a7.431,7.431,0,0,1,.01,6.123,2.421,2.421,0,0,1-1.832,1.088l-1.631,0a5.625,5.625,0,0,1-.024-.694V388.92a5.5,5.5,0,0,1,.025-.7h1.63a2.426,2.426,0,0,1,1.822,1.067m-5.8,4.775a.755.755,0,0,1-.414.361.825.825,0,0,0-.662.533,13.975,13.975,0,0,1-1.5,2.841c-.166.26-.334.523-.5.8a6.323,6.323,0,0,1-1.459,1.767c-2.14,1.774-3.651,1.56-3.7,1.553a.816.816,0,0,0-.156-.014,6.99,6.99,0,0,1-3.771-1.516,5.844,5.844,0,0,1-1.592-1.827c-.16-.263-.318-.513-.476-.759a13.386,13.386,0,0,1-1.491-2.852.888.888,0,0,0-.75-.546.736.736,0,0,1-.417-.353.81.81,0,0,0-.645-.412V390.7h0a.724.724,0,0,0,.805-.7,15.335,15.335,0,0,1,1.179-5.184c1.455-3.384,3.88-5.1,7.3-5.1,8.257,0,8.283,9.7,8.283,10.11,0,.456.644.823.644.823v3a.815.815,0,0,0-.67.415m-2.091,13.111-4.028.958a.845.845,0,0,1-1-.615.828.828,0,0,1,.614-1l4.027-.958a.881.881,0,0,1,.191-.022.828.828,0,0,1,.193,1.633m-18.76-9.019h1.655a1.566,1.566,0,0,0,1.156-.436,2.553,2.553,0,0,0,.5-1.923v-.081a2.232,2.232,0,0,0,.415.219,15.789,15.789,0,0,0,1.491,2.759c.152.236.305.478.46.731a7.3,7.3,0,0,0,2.006,2.283,8.559,8.559,0,0,0,4.7,1.852,3.164,3.164,0,0,0,.433.027,7.217,7.217,0,0,0,4.528-1.927,7.835,7.835,0,0,0,1.837-2.2c.163-.267.326-.521.486-.772a16.326,16.326,0,0,0,1.512-2.777,2.258,2.258,0,0,0,.341-.193v.077a2.557,2.557,0,0,0,.5,1.923,1.4,1.4,0,0,0,.326.236c-.056,1.948-.543,5.727-2.367,6.376a2.455,2.455,0,0,0-1.985-.378l-4.027.957a2.483,2.483,0,1,0,1.15,4.832l4.027-.958a2.485,2.485,0,0,0,1.841-2.99c-.006-.027-.019-.052-.026-.078,2.558-1.316,2.981-5.654,3.04-7.561h.834a4.088,4.088,0,0,0,3.331-2.039,9.116,9.116,0,0,0-.011-7.533,4.023,4.023,0,0,0-2.506-1.895,13.232,13.232,0,1,0-26.462,0,3.964,3.964,0,0,0-2.515,1.92,9.1,9.1,0,0,0,.01,7.532,4.078,4.078,0,0,0,3.321,2.018" transform="translate(-285.071 -373.069)"/></svg>