<svg id="Layer_1" data-name="Layer 1" xmlns="http://www.w3.org/2000/svg" viewBox="0 0 45.204 45.204"><defs><style>.cls-1{fill:#e8e9ec;}.cls-2{fill:none;stroke:#e8e9ec;stroke-width:0.5px;}</style></defs><title>icon6</title><path class="cls-1" d="M297.286,413.548h-5.8v-6.622H298.6l-1.07,1.07a.827.827,0,1,0,1.17,1.17l2.483-2.483a.82.82,0,0,0,.18-.269.836.836,0,0,0,0-.633.825.825,0,0,0-.18-.27l-2.483-2.483a.828.828,0,0,0-1.17,1.171l1.07,1.071H258.377v-1.656a.828.828,0,1,0-1.655,0v4.967a.828.828,0,1,0,1.655,0v-1.655h9.935v9.933a.828.828,0,1,0,1.655,0V415.2h17.385a.828.828,0,0,0,0-1.656H269.967v-6.622h19.869v9.933a.828.828,0,1,0,1.655,0V415.2h5.8a2.486,2.486,0,0,1,2.483,2.483V443.35a2.486,2.486,0,0,1-2.483,2.484H262.517a2.486,2.486,0,0,1-2.484-2.484V417.687a2.486,2.486,0,0,1,2.484-2.483h3.311a.828.828,0,0,0,0-1.656h-3.311a4.144,4.144,0,0,0-4.14,4.139V443.35a4.144,4.144,0,0,0,4.14,4.14h34.769a4.144,4.144,0,0,0,4.139-4.14V417.687a4.144,4.144,0,0,0-4.139-4.139" transform="translate(-256.472 -402.536)"/><path class="cls-2" d="M297.286,413.548h-5.8v-6.622H298.6l-1.07,1.07a.827.827,0,1,0,1.17,1.17l2.483-2.483a.82.82,0,0,0,.18-.269.836.836,0,0,0,0-.633.825.825,0,0,0-.18-.27l-2.483-2.483a.828.828,0,0,0-1.17,1.171l1.07,1.071H258.377v-1.656a.828.828,0,1,0-1.655,0v4.967a.828.828,0,1,0,1.655,0v-1.655h9.935v9.933a.828.828,0,1,0,1.655,0V415.2h17.385a.828.828,0,0,0,0-1.656H269.967v-6.622h19.869v9.933a.828.828,0,1,0,1.655,0V415.2h5.8a2.486,2.486,0,0,1,2.483,2.483V443.35a2.486,2.486,0,0,1-2.483,2.484H262.517a2.486,2.486,0,0,1-2.484-2.484V417.687a2.486,2.486,0,0,1,2.484-2.483h3.311a.828.828,0,0,0,0-1.656h-3.311a4.144,4.144,0,0,0-4.14,4.139V443.35a4.144,4.144,0,0,0,4.14,4.14h34.769a4.144,4.144,0,0,0,4.139-4.14V417.687a4.144,4.144,0,0,0-4.139-4.139" transform="translate(-256.472 -402.536)"/><path class="cls-1" d="M269.14,425.137a.828.828,0,0,0-.828.828v2.483h-2.483v-2.483a.828.828,0,1,0-1.656,0v6.622a.828.828,0,1,0,1.656,0V430.1h2.483v2.483a.828.828,0,1,0,1.656,0v-6.622a.828.828,0,0,0-.828-.828" transform="translate(-256.472 -402.536)"/><path class="cls-2" d="M269.14,425.137a.828.828,0,0,0-.828.828v2.483h-2.483v-2.483a.828.828,0,1,0-1.656,0v6.622a.828.828,0,1,0,1.656,0V430.1h2.483v2.483a.828.828,0,1,0,1.656,0v-6.622a.828.828,0,0,0-.828-.828" transform="translate(-256.472 -402.536)"/><path class="cls-1" d="M289.008,426.793a.828.828,0,0,0,0-1.656h-2.484a.828.828,0,0,0-.828.828v6.623a.828.828,0,0,0,.828.827h2.484a.828.828,0,1,0,0-1.655h-1.656V430.1h1.656a.828.828,0,1,0,0-1.655h-1.656v-1.656Z" transform="translate(-256.472 -402.536)"/><path class="cls-2" d="M289.008,426.793a.828.828,0,0,0,0-1.656h-2.484a.828.828,0,0,0-.828.828v6.623a.828.828,0,0,0,.828.827h2.484a.828.828,0,1,0,0-1.655h-1.656V430.1h1.656a.828.828,0,1,0,0-1.655h-1.656v-1.656Z" transform="translate(-256.472 -402.536)"/><path class="cls-1" d="M293.147,425.137a.828.828,0,0,0-.828.828v6.622a.828.828,0,0,0,.828.828h2.483a.828.828,0,0,0,0-1.656h-1.655v-5.794a.828.828,0,0,0-.828-.828" transform="translate(-256.472 -402.536)"/><path class="cls-2" d="M293.147,425.137a.828.828,0,0,0-.828.828v6.622a.828.828,0,0,0,.828.828h2.483a.828.828,0,0,0,0-1.656h-1.655v-5.794a.828.828,0,0,0-.828-.828" transform="translate(-256.472 -402.536)"/><path class="cls-1" d="M283.213,425.137H279.9a.828.828,0,0,0,0,1.656h.828v5.794a.828.828,0,1,0,1.655,0v-5.794h.828a.828.828,0,0,0,0-1.656" transform="translate(-256.472 -402.536)"/><path class="cls-2" d="M283.213,425.137H279.9a.828.828,0,0,0,0,1.656h.828v5.794a.828.828,0,1,0,1.655,0v-5.794h.828a.828.828,0,0,0,0-1.656" transform="translate(-256.472 -402.536)"/><path class="cls-1" d="M273.279,429.276c0-1.509.65-2.483,1.656-2.483s1.655.974,1.655,2.483c0,1.462-.68,2.483-1.655,2.483s-1.656-1.021-1.656-2.483m4.967,0c0-2.844-1.716-4.139-3.311-4.139s-3.312,1.3-3.312,4.139c0,2.717,1.666,4.139,3.312,4.139s3.311-1.422,3.311-4.139" transform="translate(-256.472 -402.536)"/><path class="cls-2" d="M273.279,429.276c0-1.509.65-2.483,1.656-2.483s1.655.974,1.655,2.483c0,1.462-.68,2.483-1.655,2.483s-1.656-1.021-1.656-2.483m4.967,0c0-2.844-1.716-4.139-3.311-4.139s-3.312,1.3-3.312,4.139c0,2.717,1.666,4.139,3.312,4.139s3.311-1.422,3.311-4.139" transform="translate(-256.472 -402.536)"/><path class="cls-1" d="M264.173,438.383a.828.828,0,0,0,.828.828H276.59a.828.828,0,0,0,0-1.656H265a.828.828,0,0,0-.828.828" transform="translate(-256.472 -402.536)"/><path class="cls-2" d="M264.173,438.383a.828.828,0,0,0,.828.828H276.59a.828.828,0,0,0,0-1.656H265a.828.828,0,0,0-.828.828" transform="translate(-256.472 -402.536)"/><path class="cls-1" d="M279.9,439.211h.828a.828.828,0,0,0,0-1.656H279.9a.828.828,0,0,0,0,1.656" transform="translate(-256.472 -402.536)"/><path class="cls-2" d="M279.9,439.211h.828a.828.828,0,0,0,0-1.656H279.9a.828.828,0,0,0,0,1.656" transform="translate(-256.472 -402.536)"/><path class="cls-1" d="M283.213,438.383a.828.828,0,0,0,.828.828h11.59a.828.828,0,0,0,0-1.656h-11.59a.828.828,0,0,0-.828.828" transform="translate(-256.472 -402.536)"/><path class="cls-2" d="M283.213,438.383a.828.828,0,0,0,.828.828h11.59a.828.828,0,0,0,0-1.656h-11.59a.828.828,0,0,0-.828.828" transform="translate(-256.472 -402.536)"/></svg>