<svg id="Layer_1" data-name="Layer 1" xmlns="http://www.w3.org/2000/svg" viewBox="0 0 41.516 44.704"><defs><style>.cls-1{fill:#e8e9ec;}</style></defs><title>icon4</title><path class="cls-1" d="M324.891,416.222a3.555,3.555,0,0,1-1.5.113c-.26-.009-.528-.019-.8-.019h-1.673v-6.989c2.146,1.519,3.111,2.64,3.286,3.217a10.252,10.252,0,0,1,.75,3.321.6.6,0,0,1-.068.357m-8.148-1.578h2.508v1.672h-2.508Zm-24.248,0H295v1.672H292.5Zm-3.944,1.68c-.62.013-1.471.028-1.675-.174a.516.516,0,0,1-.087-.317c.068-.31.315-1.417.807-3.321.075-.287.534-1.3,3.227-3.09v6.894h-1.672c-.2,0-.4,0-.6.008M295,405.631v7.341H292.5v-6.84Zm3.174-.052,7.14,6.346a.837.837,0,0,0,1.078.028l7.963-6.371c.233.106.472.219.711.334v10.4H296.676V406.233c.521-.238,1.031-.462,1.5-.654m21.073.553v6.84h-2.508v-7.341Zm6.558,5.926c-.389-1.28-2.034-2.879-4.886-4.755v-1.856a.836.836,0,0,0-.672-.82l-4.18-.836a.837.837,0,0,0-.7.173.87.87,0,0,0-.145.186c-.22-.1-.447-.212-.662-.3a.837.837,0,0,0-.857.113l-7.81,6.248-7-6.22a.834.834,0,0,0-.858-.155c-.435.17-.916.374-1.412.591a.823.823,0,0,0-.263-.458.838.838,0,0,0-.694-.173l-4.181.836a.837.837,0,0,0-.672.82v1.991c-2.909,1.791-4.5,3.314-4.845,4.655-.6,2.31-.835,3.442-.845,3.489a.753.753,0,0,0-.018.171,2.139,2.139,0,0,0,.59,1.591,3.137,3.137,0,0,0,2.318.658c.183,0,.37,0,.559-.006s.377-.008.569-.008H322.6c.251,0,.5.01.74.019s.478.016.709.016a2.736,2.736,0,0,0,2.007-.6,2.08,2.08,0,0,0,.579-1.56,11.567,11.567,0,0,0-.822-3.807" transform="translate(-285.115 -373.319)"/><path class="cls-1" d="M324.891,416.222a3.555,3.555,0,0,1-1.5.113c-.26-.009-.528-.019-.8-.019h-1.673v-6.989c2.146,1.519,3.111,2.64,3.286,3.217a10.252,10.252,0,0,1,.75,3.321.6.6,0,0,1-.068.357m-8.148-1.578h2.508v1.672h-2.508Zm-24.248,0H295v1.672H292.5Zm-3.944,1.68c-.62.013-1.471.028-1.675-.174a.516.516,0,0,1-.087-.317c.068-.31.315-1.417.807-3.321.075-.287.534-1.3,3.227-3.09v6.894h-1.672c-.2,0-.4,0-.6.008M295,405.631v7.341H292.5v-6.84Zm3.174-.052,7.14,6.346a.837.837,0,0,0,1.078.028l7.963-6.371c.233.106.472.219.711.334v10.4H296.676V406.233c.521-.238,1.031-.462,1.5-.654m21.073.553v6.84h-2.508v-7.341Zm6.558,5.926c-.389-1.28-2.034-2.879-4.886-4.755v-1.856a.836.836,0,0,0-.672-.82l-4.18-.836a.837.837,0,0,0-.7.173.87.87,0,0,0-.145.186c-.22-.1-.447-.212-.662-.3a.837.837,0,0,0-.857.113l-7.81,6.248-7-6.22a.834.834,0,0,0-.858-.155c-.435.17-.916.374-1.412.591a.823.823,0,0,0-.263-.458.838.838,0,0,0-.694-.173l-4.181.836a.837.837,0,0,0-.672.82v1.991c-2.909,1.791-4.5,3.314-4.845,4.655-.6,2.31-.835,3.442-.845,3.489a.753.753,0,0,0-.018.171,2.139,2.139,0,0,0,.59,1.591,3.137,3.137,0,0,0,2.318.658c.183,0,.37,0,.559-.006s.377-.008.569-.008H322.6c.251,0,.5.01.74.019s.478.016.709.016a2.736,2.736,0,0,0,2.007-.6,2.08,2.08,0,0,0,.579-1.56,11.567,11.567,0,0,0-.822-3.807" transform="translate(-285.115 -373.319)"/><path class="cls-1" d="M297.1,394.006a15.78,15.78,0,0,0,1.506,2.785c.153.24.308.484.465.74a8.007,8.007,0,0,0,1.681,2.041c-.134.893-.542,2.549-.733,3.326l-.045.183a.836.836,0,0,0,.612,1.011.812.812,0,0,0,.2.024.835.835,0,0,0,.81-.636l.045-.182a28.1,28.1,0,0,0,.823-4.084.838.838,0,0,0-.359-.71,5.85,5.85,0,0,1-1.608-1.844c-.162-.265-.323-.518-.481-.766a13.51,13.51,0,0,1-1.506-2.88.9.9,0,0,0-.757-.553.734.734,0,0,1-.421-.355,9.092,9.092,0,0,1-1.047-4.4.709.709,0,0,1,.319-.043.836.836,0,0,0,.859-.866c-.153-4.145,1.129-6.139,3.1-7.858a.837.837,0,0,0,.213-.973c-.011-.023-.021-.045-.033-.066a3.866,3.866,0,0,1,1.926-.445l.046-.835.688-.473a1.134,1.134,0,0,1,.215-.711,4.659,4.659,0,0,0,1.7.844,27.624,27.624,0,0,1,3.737,1.306c3.8,1.508,5.494,4.436,5.319,9.214a.837.837,0,0,0,.819.867c.153,0,.235.03.229.019a8.786,8.786,0,0,1-1.028,4.428.756.756,0,0,1-.418.364.835.835,0,0,0-.668.539,14.088,14.088,0,0,1-1.518,2.868c-.168.263-.338.53-.51.811a6.337,6.337,0,0,1-1.45,1.767.841.841,0,0,0-.325.667,21.991,21.991,0,0,0,.617,4.293.837.837,0,0,0,1.614-.442,21.031,21.031,0,0,1-.545-3.48,8.663,8.663,0,0,0,1.518-1.935c.164-.27.328-.527.491-.781a16.556,16.556,0,0,0,1.526-2.8,2.5,2.5,0,0,0,1.137-1.067c.974-1.786,1.537-4.653,1.136-5.786a1.61,1.61,0,0,0-.941-.974c0-5.106-2.089-8.42-6.358-10.111a29.309,29.309,0,0,0-3.935-1.376,2.461,2.461,0,0,1-1.221-.65.838.838,0,0,0-.99-.685c-.729.146-1.368,1.125-1.619,1.747a2.857,2.857,0,0,0-.2.75,3.441,3.441,0,0,0-3.085,2.251.909.909,0,0,0-.045.4,10.206,10.206,0,0,0-2.832,7.623,1.641,1.641,0,0,0-1.048,1.015c-.4,1.132.159,4,1.135,5.783a2.439,2.439,0,0,0,1.233,1.1" transform="translate(-285.115 -373.319)"/><path class="cls-1" d="M297.1,394.006a15.78,15.78,0,0,0,1.506,2.785c.153.24.308.484.465.74a8.007,8.007,0,0,0,1.681,2.041c-.134.893-.542,2.549-.733,3.326l-.045.183a.836.836,0,0,0,.612,1.011.812.812,0,0,0,.2.024.835.835,0,0,0,.81-.636l.045-.182a28.1,28.1,0,0,0,.823-4.084.838.838,0,0,0-.359-.71,5.85,5.85,0,0,1-1.608-1.844c-.162-.265-.323-.518-.481-.766a13.51,13.51,0,0,1-1.506-2.88.9.9,0,0,0-.757-.553.734.734,0,0,1-.421-.355,9.092,9.092,0,0,1-1.047-4.4.709.709,0,0,1,.319-.043.836.836,0,0,0,.859-.866c-.153-4.145,1.129-6.139,3.1-7.858a.837.837,0,0,0,.213-.973c-.011-.023-.021-.045-.033-.066a3.866,3.866,0,0,1,1.926-.445l.046-.835.688-.473a1.134,1.134,0,0,1,.215-.711,4.659,4.659,0,0,0,1.7.844,27.624,27.624,0,0,1,3.737,1.306c3.8,1.508,5.494,4.436,5.319,9.214a.837.837,0,0,0,.819.867c.153,0,.235.03.229.019a8.786,8.786,0,0,1-1.028,4.428.756.756,0,0,1-.418.364.835.835,0,0,0-.668.539,14.088,14.088,0,0,1-1.518,2.868c-.168.263-.338.53-.51.811a6.337,6.337,0,0,1-1.45,1.767.841.841,0,0,0-.325.667,21.991,21.991,0,0,0,.617,4.293.837.837,0,0,0,1.614-.442,21.031,21.031,0,0,1-.545-3.48,8.663,8.663,0,0,0,1.518-1.935c.164-.27.328-.527.491-.781a16.556,16.556,0,0,0,1.526-2.8,2.5,2.5,0,0,0,1.137-1.067c.974-1.786,1.537-4.653,1.136-5.786a1.61,1.61,0,0,0-.941-.974c0-5.106-2.089-8.42-6.358-10.111a29.309,29.309,0,0,0-3.935-1.376,2.461,2.461,0,0,1-1.221-.65.838.838,0,0,0-.99-.685c-.729.146-1.368,1.125-1.619,1.747a2.857,2.857,0,0,0-.2.75,3.441,3.441,0,0,0-3.085,2.251.909.909,0,0,0-.045.4,10.206,10.206,0,0,0-2.832,7.623,1.641,1.641,0,0,0-1.048,1.015c-.4,1.132.159,4,1.135,5.783a2.439,2.439,0,0,0,1.233,1.1" transform="translate(-285.115 -373.319)"/></svg>