<?xml version="1.0" encoding="UTF-8"?>
<svg id="Layer_1" data-name="Layer 1" xmlns="http://www.w3.org/2000/svg" viewBox="0 0 80 80">
  <defs>
    <style>
      .cls-1 {
        fill: #fff;
      }
    </style>
  </defs>
  <path class="cls-1" d="m40.91,17.52h-4.44c-.64,0-1.17.52-1.17,1.17s.52,1.17,1.17,1.17h2.16v1.05c0,.64.52,1.17,1.17,1.17s1.17-.52,1.17-1.17v-1.06c1.84-.03,3.33-1.53,3.33-3.38s-1.52-3.39-3.39-3.39h-2.22c-.58,0-1.05-.47-1.05-1.05s.47-1.05,1.05-1.05h4.44c.64,0,1.17-.52,1.17-1.17s-.52-1.17-1.17-1.17h-2.16v-1.05c0-.64-.52-1.17-1.17-1.17s-1.17.52-1.17,1.17v1.06c-1.84.03-3.33,1.53-3.33,3.38s1.52,3.39,3.39,3.39h2.22c.58,0,1.05.47,1.05,1.05s-.47,1.05-1.05,1.05Z"/>
  <path class="cls-1" d="m39.79,27.4c7.25,0,13.16-5.9,13.16-13.16S47.05,1.08,39.79,1.08s-13.16,5.9-13.16,13.16,5.9,13.16,13.16,13.16Zm0-23.98c5.97,0,10.82,4.86,10.82,10.82s-4.86,10.82-10.82,10.82-10.82-4.86-10.82-10.82,4.86-10.82,10.82-10.82Z"/>
  <path class="cls-1" d="m77.76,77.02H2.99V2.25c0-.64-.52-1.17-1.17-1.17s-1.17.52-1.17,1.17v75.94c0,.64.52,1.17,1.17,1.17h75.94c.64,0,1.17-.52,1.17-1.17s-.52-1.17-1.17-1.17Z"/>
  <path class="cls-1" d="m77.76,25.06h-6.66c-.64,0-1.17.52-1.17,1.17s.52,1.17,1.17,1.17h3.85l-22.24,22.24-11.17-11.17c-.44-.44-1.21-.44-1.65,0l-28.24,28.24c-.46.46-.46,1.19,0,1.65.23.23.53.34.82.34s.6-.11.82-.34l27.41-27.41,11.17,11.17c.46.46,1.19.46,1.65,0l23.06-23.06v3.85c0,.64.52,1.17,1.17,1.17s1.17-.52,1.17-1.17v-6.66c0-.64-.52-1.17-1.17-1.17Z"/>
  <path class="cls-1" d="m9.82,57.81h1.33c.64,0,1.17-.52,1.17-1.17s-.52-1.17-1.17-1.17h-1.33c-.64,0-1.17.52-1.17,1.17s.52,1.17,1.17,1.17Z"/>
  <path class="cls-1" d="m9.82,3.42h1.33c.64,0,1.17-.52,1.17-1.17s-.52-1.17-1.17-1.17h-1.33c-.64,0-1.17.52-1.17,1.17s.52,1.17,1.17,1.17Z"/>
  <path class="cls-1" d="m9.82,14.3h1.33c.64,0,1.17-.52,1.17-1.17s-.52-1.17-1.17-1.17h-1.33c-.64,0-1.17.52-1.17,1.17s.52,1.17,1.17,1.17Z"/>
  <path class="cls-1" d="m9.82,25.18h1.33c.64,0,1.17-.52,1.17-1.17s-.52-1.17-1.17-1.17h-1.33c-.64,0-1.17.52-1.17,1.17s.52,1.17,1.17,1.17Z"/>
  <path class="cls-1" d="m9.82,36.06h1.33c.64,0,1.17-.52,1.17-1.17s-.52-1.17-1.17-1.17h-1.33c-.64,0-1.17.52-1.17,1.17s.52,1.17,1.17,1.17Z"/>
  <path class="cls-1" d="m9.82,46.94h1.33c.64,0,1.17-.52,1.17-1.17s-.52-1.17-1.17-1.17h-1.33c-.64,0-1.17.52-1.17,1.17s.52,1.17,1.17,1.17Z"/>
  <path class="cls-1" d="m24.53,70.19v-1.33c0-.64-.52-1.17-1.17-1.17s-1.17.52-1.17,1.17v1.33c0,.64.52,1.17,1.17,1.17s1.17-.52,1.17-1.17Z"/>
  <path class="cls-1" d="m77.76,67.7c-.64,0-1.17.52-1.17,1.17v1.33c0,.64.52,1.17,1.17,1.17s1.17-.52,1.17-1.17v-1.33c0-.64-.52-1.17-1.17-1.17Z"/>
  <path class="cls-1" d="m68.05,70.19v-1.33c0-.64-.52-1.17-1.17-1.17s-1.17.52-1.17,1.17v1.33c0,.64.52,1.17,1.17,1.17s1.17-.52,1.17-1.17Z"/>
  <path class="cls-1" d="m57.17,70.19v-1.33c0-.64-.52-1.17-1.17-1.17s-1.17.52-1.17,1.17v1.33c0,.64.52,1.17,1.17,1.17s1.17-.52,1.17-1.17Z"/>
  <path class="cls-1" d="m46.29,70.19v-1.33c0-.64-.52-1.17-1.17-1.17s-1.17.52-1.17,1.17v1.33c0,.64.52,1.17,1.17,1.17s1.17-.52,1.17-1.17Z"/>
  <path class="cls-1" d="m35.41,70.19v-1.33c0-.64-.52-1.17-1.17-1.17s-1.17.52-1.17,1.17v1.33c0,.64.52,1.17,1.17,1.17s1.17-.52,1.17-1.17Z"/>
</svg>