<svg width="800" height="800" viewBox="0 0 800 800" fill="none" xmlns="http://www.w3.org/2000/svg">
<path d="M20.092 400.005C20.092 292.164 65.0954 194.906 137.246 125.751C205.49 191.151 298.015 231.411 400.005 231.411C501.985 231.411 594.51 191.151 662.754 125.751C734.905 194.906 779.919 292.164 779.919 400.005C779.919 507.847 734.915 605.104 662.754 674.26C594.51 608.86 501.974 568.6 400.005 568.6C298.015 568.6 205.49 608.86 137.246 674.26C65.0846 605.094 20.092 507.836 20.092 400.005Z" stroke="white" stroke-width="32.564" stroke-miterlimit="10" stroke-linecap="round" stroke-linejoin="round"/>
<path d="M662.754 674.249C594.51 739.648 501.974 779.908 400.005 779.908C298.015 779.908 205.49 739.648 137.246 674.249C205.49 608.849 298.015 568.589 400.005 568.589C501.974 568.589 594.51 608.849 662.754 674.249Z" stroke="white" stroke-width="32.564" stroke-miterlimit="10" stroke-linecap="round" stroke-linejoin="round"/>
<path d="M137.246 125.751C205.49 60.352 298.015 20.092 400.005 20.092C501.985 20.092 594.51 60.352 662.754 125.751C594.51 191.151 501.974 231.411 400.005 231.411C298.004 231.411 205.49 191.151 137.246 125.751Z" stroke="white" stroke-width="32.564" stroke-miterlimit="10" stroke-linecap="round" stroke-linejoin="round"/>
<path d="M399.995 779.919C493.58 779.919 569.447 609.826 569.447 400.005C569.447 190.185 493.58 20.092 399.995 20.092C306.409 20.092 230.542 190.185 230.542 400.005C230.542 609.826 306.409 779.919 399.995 779.919Z" stroke="white" stroke-width="32.564" stroke-miterlimit="10" stroke-linecap="round" stroke-linejoin="round"/>
<path d="M400.005 20.092C400.005 20.092 390.03 778.019 400.005 778.019" stroke="white" stroke-width="32.564" stroke-miterlimit="10" stroke-linecap="round" stroke-linejoin="round"/>
<path d="M779.745 400.005H20.244" stroke="white" stroke-width="32.564" stroke-miterlimit="10" stroke-linecap="round" stroke-linejoin="round"/>
<path d="M352.495 433.286L136.986 497.079V424.211L341.607 306.97L329.602 167.607C326.063 126.337 358.595 90.897 400.005 90.897C441.416 90.897 473.958 126.348 470.398 167.607L458.382 306.97L662.992 424.211V497.079L447.505 433.286L431.864 614.906C431.842 615.123 431.777 615.308 431.744 615.525L531.499 672.686V709.103L399.995 670.178L268.49 709.103V672.686L368.234 615.525C368.212 615.308 368.147 615.123 368.125 614.906L352.495 433.286Z" fill="white" stroke="#F2611D" stroke-width="32.564" stroke-miterlimit="10" stroke-linecap="round" stroke-linejoin="round"/>
</svg>
