<?xml version="1.0" encoding="UTF-8"?>
<svg id="Layer_1" data-name="Layer 1" xmlns="http://www.w3.org/2000/svg" viewBox="0 0 86 80">
  <defs>
    <style>
      .cls-1 {
        fill: #fff;
      }
    </style>
  </defs>
  <path class="cls-1" d="m84.98,15.07c0-.75-.61-1.35-1.35-1.35h-5.21c-.67-5.45-5.32-9.69-10.95-9.69s-10.28,4.24-10.95,9.69h-5.08c-.75,0-1.35.61-1.35,1.35s.61,1.35,1.35,1.35h4.98c-.12.67-.19,1.35-.19,2.03,0,4.24,2.36,7.93,5.83,9.84-1.94.99-3.59,2.5-4.76,4.42h-10.05c-2.77,0-5.09,1.94-5.71,4.52h-5.1v-8.27c0-4.62-3.74-8.6-9.04-10.29,2.49-1.78,4.13-4.7,4.13-7.99,0-5.42-4.41-9.83-9.83-9.83s-9.83,4.41-9.83,9.83c0,3.3,1.64,6.21,4.14,8-.17.05-.35.1-.52.16-5.18,1.82-8.53,5.8-8.53,10.12v8.27H2.37c-.75,0-1.35.61-1.35,1.35s.61,1.35,1.35,1.35h2.51v33.97c0,2.22,1.81,4.03,4.03,4.03h26.8c2.22,0,4.02-1.81,4.02-4.03v-3.43h10.85c-.96,3.88,1.26,6.98,4.16,8.14.84.33,1.76.52,2.71.52,2.65,0,5.45-1.44,7.04-5.09l3.14-7.24,2.4,7.09c1.56,4.6,5.72,5.57,8.94,4.53,3.05-.99,5.54-3.89,4.41-7.51-1.95-6.25-3.07-9.16-3.67-10.72q-.63-1.63-.52-3.16c.09-1.32.24-3.52.24-7.95v-10.15c0-4.64-2.66-8.65-6.53-10.63,3.46-1.91,5.82-5.6,5.82-9.83,0-.69-.06-1.37-.19-2.03h5.11c.75,0,1.35-.61,1.35-1.35Zm-17.51-8.33c4.13,0,7.57,3.02,8.22,6.98h-16.44c.65-3.95,4.09-6.98,8.22-6.98Zm-20.21,28.69h14.08c1.75,0,3.17,1.42,3.17,3.17s-1.42,3.17-3.17,3.17h-14.08c-1.75,0-3.17-1.42-3.17-3.17s1.42-3.17,3.17-3.17Zm-23.55-9.04l-1.9,2.04-2.06-1.97,1.56-5.91c.13,0,.27-.02.4-.02.24,0,.48.02.71.03l1.29,5.84Zm-9.12-15.69c0-3.93,3.19-7.12,7.12-7.12s7.12,3.19,7.12,7.12-3.2,7.12-7.12,7.12-7.12-3.19-7.12-7.12Zm-4.92,18.28c0-3.16,2.64-6.13,6.73-7.56.65-.23,1.33-.4,2.02-.54l-1.49,5.67c-.13.48.02.98.37,1.32l3.63,3.47c.25.24.59.38.94.38.01,0,.03,0,.04,0,.36,0,.7-.16.95-.43l3.32-3.56c.3-.33.43-.78.33-1.22l-1.23-5.58c4.85,1.1,8.47,4.34,8.47,8.05v8.27H9.67v-8.27Zm27.36,44.94c0,.73-.59,1.32-1.32,1.32H8.91c-.73,0-1.32-.59-1.32-1.32v-14.92c0-.73.59-1.32,1.32-1.32h26.8c.73,0,1.32.59,1.32,1.32v14.92Zm-10.13-18.95h-9.26v-1.64c0-.89.75-1.63,1.63-1.63h5.98c.9,0,1.64.73,1.64,1.63v1.64Zm8.82,0h-6.11v-1.64c0-2.39-1.95-4.34-4.35-4.34h-5.98c-2.39,0-4.34,1.95-4.34,4.34v1.64h-6.02c-.47,0-.91.09-1.32.24v-15.26h33.97c.62,2.59,2.93,4.53,5.71,4.53h8.27v4.6c0,9.03-.07,9.19-1.83,13.34-.55,1.29-1.26,2.97-2.16,5.36h-11.79v-8.78c0-2.22-1.81-4.03-4.02-4.03Zm40.99-16.04v10.15c0,4.34-.15,6.49-.23,7.77-.14,2.03-.11,2.24.7,4.32.59,1.53,1.69,4.38,3.61,10.55.64,2.04-.93,3.57-2.66,4.13-1.91.62-4.49.25-5.53-2.82l-3.53-10.43c-.18-.53-.67-.9-1.23-.92-.56-.01-1.08.3-1.3.81l-4.53,10.47c-1.44,3.31-4.18,3.96-6.26,3.13-1.9-.76-3.37-2.77-2.35-5.57,1.22-3.35,2.13-5.49,2.79-7.06,1.9-4.48,2.05-5.04,2.05-14.4v-4.6h3.1c3.24,0,5.88-2.64,5.88-5.88s-2.64-5.88-5.88-5.88h-.68c1.73-1.9,4.18-3.03,6.82-3.03,5.09,0,9.23,4.14,9.23,9.24Zm-9.23-11.94c-1.99,0-3.83-.69-5.28-1.85,1.16-.3,2.11-.78,2.8-1.49.52-.54.5-1.4-.04-1.92-.54-.52-1.4-.5-1.92.04-.53.55-1.57.88-2.92.97-.73-1.26-1.16-2.72-1.16-4.27,0-.69.08-1.37.24-2.03h16.56c.16.66.24,1.34.24,2.03,0,4.7-3.82,8.52-8.52,8.52Z"/>
</svg>