<?xml version="1.0" encoding="utf-8"?>
<!-- Generator: Adobe Illustrator 27.3.0, SVG Export Plug-In . SVG Version: 6.00 Build 0)  -->
<svg version="1.1" id="Layer_1" xmlns="http://www.w3.org/2000/svg" xmlns:xlink="http://www.w3.org/1999/xlink" x="0px" y="0px"
	 viewBox="0 0 120 120" style="enable-background:new 0 0 120 120;" xml:space="preserve">
<style type="text/css">
	.st0{fill:#333333;}
</style>
<g>
	<path class="st0" d="M92.59,27.41H82.22v-2.96c0-2.45-1.99-4.44-4.44-4.44H76.3c-2.45,0-4.44,1.99-4.44,4.44v2.96h-23.7v-2.96
		c0-2.45-1.99-4.44-4.44-4.44h-1.48c-2.45,0-4.44,1.99-4.44,4.44v2.96H27.41c-4.08,0-7.41,3.32-7.41,7.41v57.78
		c0,4.08,3.32,7.41,7.41,7.41h65.19c4.08,0,7.41-3.32,7.41-7.41V34.81C100,30.73,96.68,27.41,92.59,27.41z M27.41,30.37h10.37v2.96
		c0,2.45,1.99,4.44,4.44,4.44h4.44c0.82,0,1.48-0.66,1.48-1.48c0-0.82-0.66-1.48-1.48-1.48h-4.44c-0.82,0-1.48-0.66-1.48-1.48v-8.89
		c0-0.82,0.66-1.48,1.48-1.48h1.48c0.82,0,1.48,0.66,1.48,1.48v2.96c-0.82,0-1.48,0.66-1.48,1.48s0.66,1.48,1.48,1.48h26.67v2.96
		c0,2.45,1.99,4.44,4.44,4.44h4.44c0.82,0,1.48-0.66,1.48-1.48c0-0.82-0.66-1.48-1.48-1.48H76.3c-0.82,0-1.48-0.66-1.48-1.48v-8.89
		c0-0.82,0.66-1.48,1.48-1.48h1.48c0.82,0,1.48,0.66,1.48,1.48v2.96c-0.82,0-1.48,0.66-1.48,1.48s0.66,1.48,1.48,1.48h13.33
		c2.45,0,4.44,1.99,4.44,4.44v11.85H22.96V34.81C22.96,32.36,24.96,30.37,27.41,30.37z M92.59,97.04H27.41
		c-2.45,0-4.44-1.99-4.44-4.44V49.63h74.07v42.96C97.04,95.04,95.04,97.04,92.59,97.04z"/>
	<path class="st0" d="M45.19,55.56c-0.82,0-1.48,0.66-1.48,1.48v10.37H33.33c-0.82,0-1.48,0.66-1.48,1.48
		c0,0.82,0.66,1.48,1.48,1.48h11.85c0.82,0,1.48-0.66,1.48-1.48V57.04C46.67,56.22,46,55.56,45.19,55.56z"/>
	<path class="st0" d="M45.19,74.81c-0.82,0-1.48,0.66-1.48,1.48v10.37H33.33c-0.82,0-1.48,0.66-1.48,1.48s0.66,1.48,1.48,1.48h11.85
		c0.82,0,1.48-0.66,1.48-1.48V76.3C46.67,75.48,46,74.81,45.19,74.81z"/>
	<path class="st0" d="M65.93,55.56c-0.82,0-1.48,0.66-1.48,1.48v10.37H54.07c-0.82,0-1.48,0.66-1.48,1.48
		c0,0.82,0.66,1.48,1.48,1.48h11.85c0.82,0,1.48-0.66,1.48-1.48V57.04C67.41,56.22,66.74,55.56,65.93,55.56z"/>
	<path class="st0" d="M65.93,74.81c-0.82,0-1.48,0.66-1.48,1.48v10.37H54.07c-0.82,0-1.48,0.66-1.48,1.48s0.66,1.48,1.48,1.48h11.85
		c0.82,0,1.48-0.66,1.48-1.48V76.3C67.41,75.48,66.74,74.81,65.93,74.81z"/>
	<path class="st0" d="M86.67,55.56c-0.82,0-1.48,0.66-1.48,1.48v10.37H74.81c-0.82,0-1.48,0.66-1.48,1.48
		c0,0.82,0.66,1.48,1.48,1.48h11.85c0.82,0,1.48-0.66,1.48-1.48V57.04C88.15,56.22,87.48,55.56,86.67,55.56z"/>
	<path class="st0" d="M86.67,74.81c-0.82,0-1.48,0.66-1.48,1.48v10.37H74.81c-0.82,0-1.48,0.66-1.48,1.48s0.66,1.48,1.48,1.48h11.85
		c0.82,0,1.48-0.66,1.48-1.48V76.3C88.15,75.48,87.48,74.81,86.67,74.81z"/>
</g>
</svg>
