<?xml version="1.0" encoding="utf-8"?>
<!-- Generator: Adobe Illustrator 27.3.0, SVG Export Plug-In . SVG Version: 6.00 Build 0)  -->
<svg version="1.1" id="Layer_1" xmlns="http://www.w3.org/2000/svg" xmlns:xlink="http://www.w3.org/1999/xlink" x="0px" y="0px"
	 viewBox="0 0 120 120" style="enable-background:new 0 0 120 120;" xml:space="preserve">
<style type="text/css">
	.st0{fill:#fff;}
</style>
<g>
	<g>
		<g>
			<path class="st0" d="M12.48,88.94c-0.54,0-1.06-0.24-1.41-0.71c-0.58-0.78-0.42-1.88,0.35-2.46l12.1-9.06
				C25,74.69,35.14,61.28,45.92,61.28c9.19,0,15.68,5.03,16.83,5.99l9.78,5.12c1.85-0.48,7.04-1.73,10.35-1.73
				c4.27,0,6.42,3.22,6.96,4.92c0.24,0.75-0.05,1.56-0.7,1.99c-1.17,0.79-11.6,7.67-16.82,7.67c-3.93,0-13.58-3.4-14.67-3.79
				c-0.92-0.33-1.39-1.33-1.07-2.25c0.33-0.92,1.33-1.39,2.25-1.07c2.8,1,10.67,3.59,13.49,3.59c2.82,0,9.27-3.5,13.51-6.2
				c-0.54-0.65-1.46-1.34-2.95-1.34c-3.53,0-10.03,1.76-10.1,1.78c-0.43,0.12-0.89,0.07-1.28-0.14L60.94,70.3
				c-0.13-0.07-0.24-0.15-0.35-0.24c-0.06-0.05-6.11-5.26-14.67-5.26c-9.59,0-19.58,14.03-19.68,14.17
				c-0.11,0.15-0.24,0.29-0.38,0.4l-12.32,9.22C13.22,88.82,12.85,88.94,12.48,88.94z"/>
		</g>
		<g>
			<path class="st0" d="M37.12,100c-0.36,0-0.73-0.11-1.04-0.34c-0.78-0.58-0.95-1.68-0.37-2.46c0.23-0.32,5.82-7.75,13.74-7.75
				c2.78,0,7,0.8,11.48,1.66c4.81,0.92,9.79,1.86,13.16,1.86c3.2,0,13.82-6.55,19.92-10.78l11.06-13.24
				c-0.31-0.16-0.67-0.28-1.06-0.28c-1.88,0-5.52,2.81-8.18,4.87c-3.49,2.7-5.73,4.35-7.66,4.35c-0.97,0-1.76-0.79-1.76-1.76
				c0-0.97,0.79-1.76,1.76-1.76c0.88-0.04,3.67-2.19,5.51-3.62c3.56-2.76,7.25-5.6,10.33-5.6c2.91,0,4.73,2.28,4.92,2.54
				c0.49,0.65,0.47,1.56-0.05,2.19L96.55,84.62c-0.1,0.12-0.22,0.23-0.35,0.32c-2.77,1.93-16.85,11.55-22.12,11.55
				c-3.71,0-8.85-0.98-13.82-1.93c-4.31-0.82-8.37-1.59-10.82-1.59c-6.16,0-10.86,6.26-10.9,6.33C38.19,99.75,37.66,100,37.12,100z"
				/>
		</g>
		<g>
			<path class="st0" d="M88.16,77.02c-0.27,0-0.55-0.06-0.81-0.2c-0.86-0.45-1.2-1.51-0.75-2.37l5.28-10.2
				c0.02-0.04,0.05-0.09,0.08-0.13c3.01-4.77,4.92-6.35,10.29-6.35c0.52,0,1.02,0.23,1.36,0.64c0.33,0.4,0.47,0.94,0.37,1.45
				l-1.62,8.48c-0.18,0.96-1.11,1.58-2.06,1.4c-0.95-0.18-1.58-1.1-1.4-2.06l1.2-6.27c-2.12,0.31-3.11,1.36-5.12,4.53l-5.24,10.13
				C89.41,76.67,88.79,77.02,88.16,77.02z"/>
		</g>
	</g>
	<g>
		<path class="st0" d="M55.14,31.84C48.1,23.99,38.16,20,25.59,20h-0.07c-0.86,0-1.64,0.54-1.95,1.34c-0.31,0.81-0.1,1.71,0.54,2.3
			c3.52,3.2,4.8,7.87,6.04,12.4c2.44,8.9,5.21,18.99,25.57,16.45c1.11-0.14,1.91-1.12,1.83-2.23c-0.03-0.4-0.88-9.92-11.82-17.65
			c-0.94-0.66-2.25-0.44-2.91,0.5c-0.32,0.46-0.45,1.01-0.35,1.56c0.1,0.55,0.4,1.03,0.85,1.35c6.42,4.53,8.77,9.74,9.62,12.56
			c-6.56,0.55-10.95-0.4-13.76-2.96c-2.75-2.5-3.84-6.48-5-10.69c-0.98-3.58-1.99-7.27-4.06-10.54c9.19,0.83,16.55,4.28,21.9,10.25
			c4.86,5.43,8.15,12.99,9.8,22.47c0.17,1,1.04,1.73,2.06,1.73c0.12,0,0.24-0.01,0.36-0.03c0.55-0.1,1.03-0.4,1.35-0.86
			c0.32-0.46,0.45-1.01,0.35-1.56C64.16,46.12,60.52,37.87,55.14,31.84z"/>
		<path class="st0" d="M99.86,30.95c-0.25-0.82-0.99-1.42-1.84-1.48c-8.38-0.65-15.38,0.68-20.8,3.94
			c-4.85,2.92-8.56,7.48-11.04,13.53c-0.43,1.07,0.08,2.29,1.15,2.72c1.07,0.43,2.29-0.08,2.72-1.14
			c4.05-9.93,11.66-14.86,23.22-15.03c-1.56,2.33-2.49,4.93-3.4,7.46c-2.26,6.3-3.92,10.91-14.5,9.36c0.92-2.11,3.09-5.66,7.91-8.53
			c0.48-0.29,0.82-0.74,0.96-1.28c0.14-0.54,0.06-1.1-0.23-1.58c-0.29-0.48-0.74-0.82-1.28-0.96c-0.54-0.14-1.1-0.05-1.58,0.23
			c-9.25,5.51-10.51,13.12-10.56,13.44c-0.17,1.11,0.55,2.14,1.65,2.37c2.52,0.52,4.83,0.78,6.85,0.78
			c10.26,0,12.63-6.59,14.72-12.42c1.23-3.41,2.49-6.93,5.35-9.15C99.82,32.67,100.1,31.77,99.86,30.95z"/>
	</g>
</g>
</svg>
