<?xml version="1.0" encoding="utf-8"?>
<!-- Generator: Adobe Illustrator 27.3.0, SVG Export Plug-In . SVG Version: 6.00 Build 0)  -->
<svg version="1.1" id="Layer_1" xmlns="http://www.w3.org/2000/svg" xmlns:xlink="http://www.w3.org/1999/xlink" x="0px" y="0px"
	 viewBox="0 0 120 120" style="enable-background:new 0 0 120 120;" xml:space="preserve">
<style type="text/css">
	.st0{fill:#fff;}
</style>
<g>
	<path class="st0" d="M95.68,89.33c-0.7-2.29-3.64-5.15-8.74-8.51v-3.32c0-0.71-0.5-1.33-1.2-1.47l-7.48-1.5
		c-0.44-0.09-0.9,0.03-1.24,0.31c-0.11,0.09-0.18,0.22-0.26,0.33c-0.4-0.18-0.8-0.38-1.18-0.55c-0.51-0.22-1.1-0.14-1.53,0.2
		L60.05,86.01L47.53,74.88c-0.42-0.37-1.02-0.48-1.54-0.28c-0.78,0.3-1.64,0.67-2.53,1.06c-0.08-0.31-0.22-0.61-0.47-0.82
		c-0.34-0.28-0.8-0.4-1.24-0.31l-7.48,1.5c-0.7,0.14-1.2,0.75-1.2,1.47v3.56c-5.21,3.21-8.05,5.93-8.67,8.33
		c-1.07,4.13-1.49,6.16-1.51,6.24c-0.02,0.1-0.03,0.2-0.03,0.31c0,1.2,0.36,2.16,1.05,2.85c1.05,1.03,2.53,1.18,4.15,1.18
		c0.33,0,0.66-0.01,1-0.01c0.33-0.01,0.68-0.01,1.02-0.01h4.49h7.48h35.91h7.48h4.49c0.45,0,0.89,0.02,1.33,0.03
		c0.43,0.01,0.85,0.03,1.27,0.03c1.39,0,2.66-0.17,3.59-1.07c0.69-0.66,1.04-1.6,1.04-2.79C97.15,94.57,97,93.69,95.68,89.33z
		 M83.94,78.72v12.24h-4.49V77.82L83.94,78.72z M46.23,77.73l12.78,11.36c0.28,0.25,0.64,0.38,0.99,0.38c0.33,0,0.66-0.11,0.94-0.33
		l14.25-11.4c0.42,0.19,0.84,0.39,1.27,0.6v18.61H43.54V78.9C44.47,78.48,45.39,78.08,46.23,77.73z M40.55,77.82v13.14h-4.49V78.72
		L40.55,77.82z M29,96.96c-1.11,0.02-2.63,0.05-3-0.31c-0.09-0.09-0.14-0.29-0.16-0.57c0.12-0.56,0.56-2.54,1.45-5.94
		c0.13-0.51,0.95-2.33,5.77-5.53v12.34h-2.99C29.71,96.95,29.35,96.95,29,96.96z M36.06,96.95v-2.99h4.49v2.99H36.06z M79.45,96.95
		v-2.99h4.49v2.99H79.45z M94.03,96.78c-0.3,0.29-1.72,0.24-2.68,0.2c-0.46-0.02-0.95-0.03-1.43-0.03h-2.99V84.44
		c3.84,2.72,5.57,4.73,5.88,5.76c1.28,4.21,1.34,4.81,1.34,5.94C94.16,96.55,94.08,96.73,94.03,96.78z"/>
	<path class="st0" d="M44.29,57.02c0.81,2.02,1.73,3.46,2.7,4.98c0.27,0.43,0.55,0.87,0.83,1.32c0.96,1.57,1.93,2.75,3.01,3.65
		c-0.24,1.6-0.97,4.56-1.31,5.95l-0.08,0.33c-0.2,0.8,0.29,1.61,1.09,1.81c0.12,0.03,0.24,0.04,0.36,0.04
		c0.67,0,1.28-0.46,1.45-1.14l0.08-0.33c0.69-2.81,1.43-5.92,1.47-7.31c0.01-0.5-0.23-0.98-0.64-1.27c-1.02-0.71-1.94-1.76-2.88-3.3
		c-0.29-0.47-0.58-0.93-0.86-1.37c-1.04-1.63-1.93-3.04-2.69-5.15c-0.2-0.55-0.77-0.94-1.36-0.99c-0.14-0.01-0.54-0.25-0.75-0.63
		c-1.51-2.77-2.16-7.01-1.87-7.87c0.04-0.02,0.21-0.08,0.57-0.08c0.38,0.02,0.81-0.15,1.1-0.44c0.29-0.29,0.45-0.69,0.43-1.11
		c-0.27-7.42,2.02-10.99,5.55-14.06c0.5-0.43,0.65-1.14,0.38-1.74c-0.02-0.04-0.04-0.08-0.06-0.12c1.27-0.86,3.41-0.8,3.45-0.8
		l0.08-1.49l1.23-0.85c-0.1-0.23,0.1-0.77,0.38-1.27c0.85,0.71,1.98,1.22,3.04,1.51c3.07,0.85,5.3,1.73,6.69,2.34
		c6.81,2.7,9.83,7.94,9.52,16.49c-0.01,0.4,0.13,0.79,0.41,1.08c0.28,0.29,0.66,0.46,1.06,0.47c0.27,0.01,0.42,0.06,0.41,0.03
		c0.32,0.91-0.33,5.15-1.84,7.93c-0.21,0.39-0.6,0.63-0.75,0.65c-0.55,0.08-1.01,0.45-1.2,0.96c-0.77,2.09-1.72,3.57-2.71,5.13
		c-0.3,0.47-0.6,0.95-0.91,1.45c-0.91,1.49-1.73,2.5-2.6,3.16c-0.37,0.29-0.58,0.73-0.58,1.19c0.01,1.88,0.56,5.69,1.1,7.68
		c0.22,0.8,1.05,1.27,1.84,1.05c0.8-0.22,1.27-1.04,1.05-1.84c-0.43-1.55-0.87-4.43-0.97-6.23c0.93-0.85,1.81-1.97,2.71-3.46
		c0.3-0.48,0.59-0.94,0.88-1.4c0.94-1.47,1.9-2.98,2.73-5.02c0.82-0.37,1.57-1.06,2.03-1.91c1.74-3.2,2.75-8.33,2.03-10.35
		c-0.29-0.82-0.88-1.42-1.68-1.74c0.01-9.14-3.74-15.07-11.38-18.09c-1.42-0.63-3.79-1.56-7.04-2.46c-1.43-0.4-2.11-1.04-2.18-1.16
		c-0.07-0.4-0.29-0.76-0.63-0.99c-0.33-0.23-0.74-0.32-1.15-0.24c-1.31,0.26-2.45,2.01-2.9,3.12c-0.19,0.46-0.3,0.91-0.35,1.34
		c-1.98,0.28-4.75,1.23-5.52,4.03C47,28.76,46.97,29.01,47,29.25c-2.69,2.77-5.04,6.72-5.07,13.64c-1.24,0.42-1.71,1.35-1.88,1.82
		c-0.72,2.03,0.29,7.15,2.03,10.35C42.58,55.97,43.4,56.68,44.29,57.02z"/>
</g>
</svg>
