<?xml version="1.0" encoding="UTF-8"?>
<svg id="Layer_1" data-name="Layer 1" xmlns="http://www.w3.org/2000/svg" xmlns:xlink="http://www.w3.org/1999/xlink" viewBox="0 0 691.48 217.58">
  <defs>
    <style>
      .cls-1 {
        fill: #f15c22;
      }

      .cls-2 {
        fill: url(#Orange_Yellow_5-6);
      }

      .cls-3 {
        fill: url(#Orange_Yellow_5-4);
      }

      .cls-4 {
        fill: url(#Orange_Yellow_5-7);
      }

      .cls-5 {
        fill: url(#Orange_Yellow_5-2);
      }

      .cls-6 {
        fill: url(#Orange_Yellow_5-5);
      }

      .cls-7 {
        fill: url(#Orange_Yellow_5-3);
      }

      .cls-8 {
        fill: url(#Orange_Yellow_5);
      }
    </style>
    <linearGradient id="Orange_Yellow_5" data-name="Orange, Yellow 5" x1="136.32" y1="-69.15" x2="316.22" y2="195.55" gradientUnits="userSpaceOnUse">
      <stop offset="0" stop-color="#fdeb07"/>
      <stop offset=".04" stop-color="#fddf09"/>
      <stop offset=".11" stop-color="#fdcd0c"/>
      <stop offset=".19" stop-color="#fdc10f"/>
      <stop offset=".28" stop-color="#febe10"/>
      <stop offset=".67" stop-color="#f5832a"/>
      <stop offset=".89" stop-color="#f1602e"/>
      <stop offset="1" stop-color="#ee2d31"/>
    </linearGradient>
    <linearGradient id="Orange_Yellow_5-2" data-name="Orange, Yellow 5" x1="-.4" y1="23.77" x2="179.51" y2="288.47" xlink:href="#Orange_Yellow_5"/>
    <linearGradient id="Orange_Yellow_5-3" data-name="Orange, Yellow 5" x1="69.34" y1="-23.64" x2="249.25" y2="241.06" xlink:href="#Orange_Yellow_5"/>
    <linearGradient id="Orange_Yellow_5-4" data-name="Orange, Yellow 5" x1="9.63" y1="16.95" x2="189.53" y2="281.65" xlink:href="#Orange_Yellow_5"/>
    <linearGradient id="Orange_Yellow_5-5" data-name="Orange, Yellow 5" x1="58.21" y1="-16.07" x2="238.12" y2="248.63" xlink:href="#Orange_Yellow_5"/>
    <linearGradient id="Orange_Yellow_5-6" data-name="Orange, Yellow 5" x1="71.25" y1="-24.93" x2="251.15" y2="239.77" xlink:href="#Orange_Yellow_5"/>
    <linearGradient id="Orange_Yellow_5-7" data-name="Orange, Yellow 5" x1="128.54" y1="-63.87" x2="308.45" y2="200.83" xlink:href="#Orange_Yellow_5"/>
  </defs>
  <g>
    <path class="cls-8" d="m301.34,86.75h0c-21.52-23.44-79.1-77.96-148.67-77.96-6.6,0-11.95,5.35-11.95,11.95s5.35,11.95,11.95,11.95c15.62,0,71.23,5.06,131.07,70.22,4.48,4.85,12.04,5.14,16.89.66,4.82-4.46,5.14-11.98.72-16.83Z"/>
    <path class="cls-5" d="m152.67,172.4c-25.88,0-53.14-9.24-81-27.46-16.07-10.66-30.96-23-44.42-36.8-4.62-4.72-12.18-4.8-16.9-.18-4.72,4.62-4.8,12.18-.18,16.9,14.68,15.04,30.91,28.48,48.42,40.09,31.82,20.81,63.47,31.36,94.08,31.36,6.6,0,11.95-5.36,11.95-11.96,0-6.6-5.35-11.95-11.95-11.95Z"/>
    <path class="cls-7" d="m152.67,67.72c-17.25,0-31.23,13.98-31.23,31.23s13.98,31.23,31.23,31.23,31.23-13.98,31.23-31.23c-.02-17.24-13.99-31.21-31.23-31.23Z"/>
    <path class="cls-3" d="m42.92,86.05c11.11,0,20.12-9.01,20.12-20.12s-9.01-20.12-20.12-20.12-20.12,9.01-20.12,20.11c0,11.11,9.01,20.12,20.12,20.12Z"/>
    <path class="cls-6" d="m92.61,54.65c11.11,0,20.12-9.01,20.12-20.12s-9.01-20.12-20.12-20.12-20.12,9.01-20.12,20.11c0,11.11,9.01,20.12,20.12,20.12Z"/>
    <circle class="cls-2" cx="209.19" cy="178.03" r="20.12"/>
    <path class="cls-4" d="m273.9,129.88c-11.11,0-20.12,9.01-20.12,20.12s9.01,20.12,20.12,20.12,20.12-9.01,20.12-20.12c0-11.11-9.01-20.11-20.12-20.12Z"/>
  </g>
  <g>
    <g>
      <path class="cls-1" d="m386.16,38.83c-27.31,0-47.34,19.04-47.34,44.74s20.03,44.74,47.34,44.74,47.34-18.91,47.34-44.74-20.14-44.74-47.34-44.74Zm0,72.42c-15.44,0-27.07-11.25-27.07-27.68s11.62-27.68,27.07-27.68,27.07,11.25,27.07,27.68-11.62,27.68-27.07,27.68Z"/>
      <polygon class="cls-1" points="437.56 56.63 465.25 56.63 465.25 126.82 485.27 126.82 485.27 56.63 512.96 56.63 512.96 40.31 437.56 40.31 437.56 56.63"/>
      <polygon class="cls-1" points="543.6 90.73 583.77 90.73 583.77 75.16 543.6 75.16 543.6 56.39 589.08 56.39 589.08 40.31 523.7 40.31 523.7 126.82 590.69 126.82 590.69 110.76 543.6 110.76 543.6 90.73"/>
      <path class="cls-1" d="m664.83,82.22h-9.98v12.79h9.98v12.55c-5.07,2.71-10.13,3.71-15.57,3.71-16.56,0-28.06-11.49-28.06-27.68s11.49-27.68,28.3-27.68c8.78,0,16.06,3.09,22.37,9.77l12.86-11.87c-8.4-9.77-21.02-14.96-36.22-14.96-27.55,0-47.58,18.66-47.58,44.74s20.03,44.74,47.21,44.74c12.35,0,25.46-3.84,34.98-11.01v-22.3h.08v-12.79h-18.37Z"/>
    </g>
    <g>
      <path class="cls-1" d="m351.38,169.34c-6.2,0-11.08-4.65-11.08-11.27s4.87-11.27,11.08-11.27,11.08,4.65,11.08,11.27-4.84,11.27-11.08,11.27Zm0-2.5c4.65,0,8.13-3.39,8.13-8.77s-3.48-8.77-8.13-8.77-8.13,3.35-8.13,8.77,3.48,8.77,8.13,8.77Z"/>
      <path class="cls-1" d="m375.62,151.49c4.68,0,8.23,3.48,8.23,8.89s-3.58,9.02-8.23,9.02c-3.16,0-5.41-1.58-6.49-3.48v3.2h-2.88v-23.42h2.88v9.3c1.11-1.93,3.42-3.51,6.49-3.51Zm-.6,2.5c-3.13,0-5.89,2.4-5.89,6.42s2.75,6.46,5.89,6.46,5.89-2.41,5.89-6.49-2.69-6.39-5.89-6.39Z"/>
      <path class="cls-1" d="m393.79,169.4c-4.05,0-6.9-2.21-7.09-5.38h2.97c.16,1.68,1.65,2.94,4.08,2.94,2.28,0,3.54-1.14,3.54-2.56,0-3.86-10.25-1.61-10.25-8.07,0-2.66,2.5-4.84,6.36-4.84s6.36,2.06,6.55,5.44h-2.88c-.13-1.74-1.46-3.01-3.77-3.01-2.12,0-3.39,1.01-3.39,2.4,0,4.11,10.06,1.87,10.19,8.07,0,2.85-2.5,5-6.33,5Z"/>
      <path class="cls-1" d="m411.67,169.4c-4.94,0-8.58-3.48-8.58-8.99s3.51-8.92,8.58-8.92,8.32,3.54,8.32,8.29c0,.63-.03,1.14-.1,1.74h-13.86c.22,3.51,2.69,5.44,5.63,5.44,2.6,0,4.24-1.33,4.87-3.2h3.1c-.89,3.16-3.67,5.63-7.97,5.63Zm-5.6-10.22h10.95c.03-3.39-2.5-5.25-5.48-5.25-2.82,0-5.16,1.87-5.47,5.25Z"/>
      <path class="cls-1" d="m426.67,169.11h-2.88v-17.34h2.88v2.82c.98-1.93,2.85-3.13,5.6-3.13v2.97h-.76c-2.75,0-4.84,1.23-4.84,5.25v9.43Z"/>
      <path class="cls-1" d="m436.64,151.77l5.41,14.68,5.38-14.68h3.07l-6.8,17.34h-3.35l-6.8-17.34h3.1Z"/>
      <path class="cls-1" d="m460.5,151.49c3.23,0,5.44,1.65,6.46,3.45v-3.16h2.91v17.34h-2.91v-3.23c-1.04,1.87-3.29,3.51-6.49,3.51-4.62,0-8.2-3.64-8.2-9.02s3.58-8.89,8.23-8.89Zm.57,2.5c-3.16,0-5.85,2.31-5.85,6.39s2.69,6.49,5.85,6.49,5.89-2.37,5.89-6.46-2.72-6.42-5.89-6.42Z"/>
      <path class="cls-1" d="m475.37,154.15h-2.25v-2.37h2.25v-4.37h2.88v4.37h4.53v2.37h-4.53v10.22c0,1.71.63,2.31,2.41,2.31h2.12v2.44h-2.6c-3.07,0-4.81-1.27-4.81-4.75v-10.22Z"/>
      <path class="cls-1" d="m493.82,169.4c-4.91,0-8.64-3.48-8.64-8.99s3.86-8.92,8.77-8.92,8.77,3.45,8.77,8.92-3.96,8.99-8.89,8.99Zm0-2.53c3.01,0,5.95-2.06,5.95-6.46s-2.88-6.42-5.85-6.42-5.79,2.06-5.79,6.42,2.69,6.46,5.7,6.46Z"/>
      <path class="cls-1" d="m509.39,169.11h-2.88v-17.34h2.88v2.82c.98-1.93,2.85-3.13,5.6-3.13v2.97h-.76c-2.75,0-4.84,1.23-4.84,5.25v9.43Z"/>
      <path class="cls-1" d="m517.84,146.99c0-1.11.85-1.96,1.96-1.96,1.04,0,1.9.85,1.9,1.96s-.85,1.96-1.9,1.96c-1.11,0-1.96-.85-1.96-1.96Zm.47,4.78h2.88v17.34h-2.88v-17.34Z"/>
      <path class="cls-1" d="m533.66,169.4c-4.9,0-8.64-3.48-8.64-8.99s3.86-8.92,8.77-8.92,8.77,3.45,8.77,8.92-3.96,8.99-8.89,8.99Zm0-2.53c3.01,0,5.95-2.06,5.95-6.46s-2.88-6.42-5.85-6.42-5.79,2.06-5.79,6.42,2.69,6.46,5.7,6.46Z"/>
      <path class="cls-1" d="m553.44,147.06h14.94v2.34h-6.01v19.71h-2.88v-19.71h-6.04v-2.34Z"/>
      <path class="cls-1" d="m587.3,169.11h-2.88v-2.56c-1.11,1.8-3.23,2.82-5.54,2.82-3.99,0-7.12-2.47-7.12-7.44v-10.16h2.85v9.78c0,3.51,1.93,5.32,4.84,5.32s4.97-1.84,4.97-5.57v-9.53h2.88v17.34Z"/>
      <path class="cls-1" d="m595.05,169.11h-2.88v-17.34h2.88v2.82c.98-1.93,2.85-3.13,5.6-3.13v2.97h-.76c-2.75,0-4.84,1.23-4.84,5.25v9.43Z"/>
      <path class="cls-1" d="m608.5,144.37v2.5l-6.74,3.61v-2.15l6.74-3.96Zm-4.53,7.4h2.88v17.34h-2.88v-17.34Z"/>
      <path class="cls-1" d="m617.9,169.4c-4.05,0-6.9-2.21-7.09-5.38h2.97c.16,1.68,1.65,2.94,4.08,2.94,2.28,0,3.54-1.14,3.54-2.56,0-3.86-10.25-1.61-10.25-8.07,0-2.66,2.5-4.84,6.36-4.84s6.36,2.06,6.55,5.44h-2.88c-.13-1.74-1.46-3.01-3.77-3.01-2.12,0-3.39,1.01-3.39,2.4,0,4.11,10.06,1.87,10.19,8.07,0,2.85-2.5,5-6.33,5Z"/>
      <path class="cls-1" d="m628.91,154.15h-2.25v-2.37h2.25v-4.37h2.88v4.37h4.53v2.37h-4.53v10.22c0,1.71.63,2.31,2.41,2.31h2.12v2.44h-2.6c-3.07,0-4.81-1.27-4.81-4.75v-10.22Z"/>
      <path class="cls-1" d="m639.32,146.99c0-1.11.85-1.96,1.96-1.96,1.04,0,1.9.85,1.9,1.96s-.85,1.96-1.9,1.96c-1.11,0-1.96-.85-1.96-1.96Zm.47,4.78h2.88v17.34h-2.88v-17.34Z"/>
      <path class="cls-1" d="m654.96,151.49c4.3,0,7.12,2.21,8.01,5.85h-3.1c-.6-2.09-2.34-3.42-4.91-3.42-3.16,0-5.51,2.25-5.51,6.49s2.34,6.55,5.51,6.55c2.56,0,4.27-1.23,4.91-3.42h3.1c-.89,3.45-3.7,5.85-8.01,5.85-4.94,0-8.45-3.48-8.45-8.99s3.51-8.92,8.45-8.92Z"/>
      <path class="cls-1" d="m674.36,169.4c-4.91,0-8.64-3.48-8.64-8.99s3.86-8.92,8.77-8.92,8.77,3.45,8.77,8.92-3.96,8.99-8.89,8.99Zm0-2.53c3.01,0,5.95-2.06,5.95-6.46s-2.88-6.42-5.85-6.42-5.79,2.06-5.79,6.42,2.69,6.46,5.7,6.46Z"/>
      <path class="cls-1" d="m348.23,187.24c2.27,0,4.35,1.16,5.35,2.82v-7.65h2.43v19.52h-2.43v-2.72c-.87,1.61-2.74,2.95-5.38,2.95-3.88,0-6.86-3.03-6.86-7.52s2.98-7.41,6.88-7.41Zm.45,2.08c-2.64,0-4.88,1.93-4.88,5.33s2.24,5.41,4.88,5.41,4.91-1.98,4.91-5.38-2.27-5.35-4.91-5.35Z"/>
      <path class="cls-1" d="m366.32,202.17c-4.11,0-7.15-2.9-7.15-7.49s2.93-7.44,7.15-7.44,6.94,2.95,6.94,6.91c0,.53-.03.95-.08,1.45h-11.55c.18,2.93,2.24,4.54,4.69,4.54,2.16,0,3.53-1.11,4.06-2.66h2.58c-.74,2.64-3.06,4.69-6.65,4.69Zm-4.67-8.52h9.13c.03-2.82-2.08-4.38-4.56-4.38-2.35,0-4.3,1.56-4.56,4.38Z"/>
      <path class="cls-1" d="m376.43,182.42h2.4v19.52h-2.4v-19.52Z"/>
      <path class="cls-1" d="m399.85,185.5h-7.49v6.15h6.7v1.98h-6.7v6.33h7.49v1.98h-9.89v-18.41h9.89v1.98Z"/>
      <path class="cls-1" d="m408.61,202.17c-3.38,0-5.75-1.85-5.91-4.48h2.48c.13,1.4,1.37,2.45,3.4,2.45,1.9,0,2.95-.95,2.95-2.14,0-3.22-8.55-1.35-8.55-6.73,0-2.21,2.08-4.04,5.3-4.04s5.3,1.71,5.46,4.54h-2.4c-.11-1.45-1.21-2.51-3.14-2.51-1.77,0-2.82.84-2.82,2,0,3.43,8.39,1.56,8.49,6.73,0,2.37-2.08,4.17-5.28,4.17Z"/>
      <path class="cls-1" d="m417.79,189.46h-1.87v-1.98h1.87v-3.64h2.4v3.64h3.77v1.98h-3.77v8.52c0,1.42.53,1.92,2,1.92h1.77v2.03h-2.16c-2.56,0-4.01-1.05-4.01-3.96v-8.52Z"/>
      <path class="cls-1" d="m432.82,187.24c2.69,0,4.54,1.37,5.38,2.87v-2.64h2.43v14.45h-2.43v-2.69c-.87,1.56-2.74,2.93-5.41,2.93-3.85,0-6.83-3.03-6.83-7.52s2.98-7.41,6.86-7.41Zm.47,2.08c-2.64,0-4.88,1.93-4.88,5.33s2.24,5.41,4.88,5.41,4.91-1.98,4.91-5.38-2.27-5.35-4.91-5.35Z"/>
      <path class="cls-1" d="m450.68,187.24c2.27,0,4.35,1.16,5.35,2.82v-7.65h2.43v19.52h-2.43v-2.72c-.87,1.61-2.74,2.95-5.38,2.95-3.88,0-6.86-3.03-6.86-7.52s2.98-7.41,6.88-7.41Zm.45,2.08c-2.64,0-4.88,1.93-4.88,5.33s2.24,5.41,4.88,5.41,4.91-1.98,4.91-5.38-2.27-5.35-4.91-5.35Z"/>
      <path class="cls-1" d="m468.83,202.17c-4.09,0-7.2-2.9-7.2-7.49s3.22-7.44,7.31-7.44,7.31,2.87,7.31,7.44-3.3,7.49-7.41,7.49Zm0-2.11c2.51,0,4.96-1.71,4.96-5.38s-2.4-5.35-4.88-5.35-4.83,1.71-4.83,5.35,2.24,5.38,4.75,5.38Z"/>
      <path class="cls-1" d="m492.44,187.24c2.27,0,4.35,1.16,5.35,2.82v-7.65h2.43v19.52h-2.43v-2.72c-.87,1.61-2.74,2.95-5.38,2.95-3.88,0-6.86-3.03-6.86-7.52s2.98-7.41,6.88-7.41Zm.45,2.08c-2.64,0-4.88,1.93-4.88,5.33s2.24,5.41,4.88,5.41,4.91-1.98,4.91-5.38-2.27-5.35-4.91-5.35Z"/>
      <path class="cls-1" d="m510.54,202.17c-4.11,0-7.15-2.9-7.15-7.49s2.93-7.44,7.15-7.44,6.94,2.95,6.94,6.91c0,.53-.03.95-.08,1.45h-11.55c.18,2.93,2.24,4.54,4.69,4.54,2.16,0,3.53-1.11,4.06-2.66h2.58c-.74,2.64-3.06,4.69-6.65,4.69Zm-4.67-8.52h9.13c.03-2.82-2.08-4.38-4.56-4.38-2.35,0-4.3,1.56-4.56,4.38Z"/>
      <path class="cls-1" d="m544.49,188.88h-2.87c-1-2.14-3.01-3.38-5.59-3.38-3.88,0-6.78,2.8-6.78,7.23s2.9,7.2,6.78,7.2c3.61,0,6.09-2.32,6.46-5.96h-7.33v-1.95h9.89v1.85c-.42,4.56-4.04,8.23-9.02,8.23s-9.23-3.85-9.23-9.36,4.06-9.39,9.23-9.39c3.88,0,7.09,2,8.47,5.54Z"/>
      <path class="cls-1" d="m561.02,201.93h-2.4v-2.14c-.92,1.5-2.69,2.35-4.62,2.35-3.32,0-5.93-2.06-5.93-6.2v-8.47h2.37v8.15c0,2.93,1.61,4.43,4.04,4.43s4.14-1.53,4.14-4.64v-7.94h2.4v14.45Z"/>
      <path class="cls-1" d="m571.05,187.24c2.69,0,4.54,1.37,5.38,2.87v-2.64h2.43v14.45h-2.43v-2.69c-.87,1.56-2.74,2.93-5.41,2.93-3.85,0-6.83-3.03-6.83-7.52s2.98-7.41,6.86-7.41Zm.47,2.08c-2.64,0-4.88,1.93-4.88,5.33s2.24,5.41,4.88,5.41,4.91-1.98,4.91-5.38-2.27-5.35-4.91-5.35Z"/>
      <path class="cls-1" d="m593.5,193.76c0-2.95-1.61-4.46-4.04-4.46s-4.14,1.53-4.14,4.64v7.99h-2.4v-14.45h2.4v2.06c.95-1.5,2.69-2.32,4.64-2.32,3.35,0,5.91,2.06,5.91,6.2v8.52h-2.37v-8.18Z"/>
      <path class="cls-1" d="m605.77,187.24c2.69,0,4.54,1.37,5.38,2.87v-2.64h2.43v14.45h-2.43v-2.69c-.87,1.56-2.74,2.93-5.41,2.93-3.85,0-6.83-3.03-6.83-7.52s2.98-7.41,6.86-7.41Zm.47,2.08c-2.64,0-4.88,1.93-4.88,5.33s2.24,5.41,4.88,5.41,4.91-1.98,4.91-5.38-2.27-5.35-4.91-5.35Z"/>
      <path class="cls-1" d="m620.12,187.48v17.59c0,2.61-1.37,3.72-3.82,3.72h-1.4v-2.03h1c1.32,0,1.82-.47,1.82-1.74v-17.54h2.4Zm-2.8-3.98c0-.92.71-1.64,1.61-1.64s1.61.71,1.61,1.64-.71,1.63-1.61,1.63-1.61-.71-1.61-1.63Z"/>
      <path class="cls-1" d="m637,201.93h-2.4v-2.14c-.92,1.5-2.69,2.35-4.62,2.35-3.32,0-5.93-2.06-5.93-6.2v-8.47h2.37v8.15c0,2.93,1.61,4.43,4.04,4.43s4.14-1.53,4.14-4.64v-7.94h2.4v14.45Z"/>
      <path class="cls-1" d="m647.02,187.24c2.69,0,4.54,1.37,5.38,2.87v-2.64h2.43v14.45h-2.43v-2.69c-.87,1.56-2.74,2.93-5.41,2.93-3.85,0-6.83-3.03-6.83-7.52s2.98-7.41,6.86-7.41Zm.47,2.08c-2.64,0-4.88,1.93-4.88,5.33s2.24,5.41,4.88,5.41,4.91-1.98,4.91-5.38-2.27-5.35-4.91-5.35Z"/>
      <path class="cls-1" d="m659.42,189.46h-1.87v-1.98h1.87v-3.64h2.4v3.64h3.77v1.98h-3.77v8.52c0,1.42.53,1.92,2,1.92h1.77v2.03h-2.16c-2.56,0-4.01-1.05-4.01-3.96v-8.52Z"/>
      <path class="cls-1" d="m674.8,202.17c-4.09,0-7.2-2.9-7.2-7.49s3.22-7.44,7.31-7.44,7.31,2.87,7.31,7.44-3.3,7.49-7.41,7.49Zm0-2.11c2.51,0,4.96-1.71,4.96-5.38s-2.4-5.35-4.88-5.35-4.83,1.71-4.83,5.35,2.24,5.38,4.75,5.38Z"/>
    </g>
  </g>
</svg>